<svg id="svg" version="1.1" xmlns="http://www.w3.org/2000/svg" xmlns:xlink="http://www.w3.org/1999/xlink" width="400" height="400" viewBox="0, 0, 400,400"><g id="svgg"><path id="path0" d="M26.577 63.492 C 26.154 64.136,25.794 64.382,25.697 64.092 C 25.607 63.821,25.346 63.600,25.118 63.600 C 24.848 63.600,24.861 63.792,25.155 64.145 C 25.856 64.990,27.399 64.753,27.400 63.800 C 27.400 63.133,27.667 63.000,29.000 63.000 C 29.880 63.000,30.603 63.180,30.606 63.400 C 30.609 63.620,30.755 64.025,30.930 64.300 C 31.132 64.619,31.030 64.800,30.647 64.800 C 30.317 64.800,29.934 64.617,29.796 64.393 C 29.658 64.170,29.396 64.079,29.214 64.191 C 29.033 64.304,28.771 64.101,28.632 63.740 C 28.494 63.380,28.260 63.206,28.112 63.354 C 27.648 63.819,27.626 64.969,28.075 65.247 C 28.313 65.393,27.946 65.636,27.260 65.787 C 26.255 66.008,25.838 65.877,25.107 65.111 C 24.608 64.588,24.409 64.440,24.664 64.780 C 25.684 66.143,25.508 66.800,24.124 66.800 C 23.534 66.800,23.546 66.725,24.224 66.213 C 24.651 65.890,24.786 65.620,24.524 65.613 C 24.262 65.606,23.931 65.789,23.788 66.019 C 23.614 66.301,23.317 66.269,22.883 65.919 C 22.329 65.473,22.334 65.539,22.919 66.389 C 23.834 67.718,23.780 67.949,22.587 67.818 C 21.232 67.670,21.052 67.423,21.582 66.434 C 21.848 65.937,21.872 65.600,21.641 65.600 C 21.428 65.600,21.154 65.915,21.032 66.300 C 20.675 67.424,20.870 74.000,21.260 74.000 C 21.456 74.000,21.531 73.534,21.428 72.965 C 21.283 72.166,21.377 71.982,21.841 72.160 C 22.171 72.287,22.339 72.225,22.214 72.023 C 22.089 71.821,22.170 71.542,22.393 71.404 C 22.617 71.266,22.800 71.414,22.800 71.734 C 22.800 72.053,23.070 72.418,23.400 72.545 C 23.730 72.671,24.000 72.601,24.000 72.387 C 24.000 72.174,23.842 72.000,23.649 72.000 C 23.455 72.000,23.072 71.456,22.796 70.791 C 22.176 69.293,21.784 69.018,21.708 70.028 C 21.676 70.452,21.829 70.800,22.048 70.800 C 22.268 70.800,22.334 70.983,22.196 71.207 C 21.749 71.929,21.200 71.188,21.200 69.862 C 21.200 68.857,21.378 68.557,22.000 68.510 C 22.516 68.471,22.800 68.696,22.800 69.145 C 22.800 69.844,23.517 70.800,24.043 70.800 C 24.198 70.800,24.227 70.425,24.107 69.966 C 23.941 69.332,23.808 69.260,23.551 69.666 C 23.035 70.480,23.112 69.430,23.657 68.235 C 24.029 67.419,24.252 67.307,24.857 67.630 C 25.402 67.922,25.602 67.891,25.606 67.514 C 25.610 67.147,25.735 67.172,26.041 67.600 C 26.385 68.082,26.431 68.023,26.272 67.300 C 26.042 66.250,26.653 66.062,26.924 67.100 C 27.062 67.627,27.119 67.577,27.154 66.900 C 27.179 66.405,27.380 66.000,27.600 66.000 C 27.820 66.000,27.955 66.225,27.900 66.500 C 27.845 66.775,28.027 66.954,28.304 66.899 C 28.710 66.817,28.710 66.964,28.304 67.651 C 27.902 68.333,27.901 68.541,28.300 68.686 C 28.575 68.785,28.800 69.127,28.800 69.446 C 28.800 70.159,27.616 70.669,27.260 70.109 C 26.840 69.450,24.400 69.045,24.400 69.635 C 24.400 69.909,24.520 70.013,24.668 69.866 C 24.815 69.719,25.296 69.914,25.736 70.299 C 26.177 70.685,26.406 70.775,26.245 70.500 C 26.084 70.225,26.143 70.000,26.376 70.000 C 26.609 70.000,26.800 70.245,26.800 70.545 C 26.800 70.910,27.129 71.026,27.800 70.898 C 28.350 70.793,28.800 70.537,28.800 70.330 C 28.800 70.122,28.963 70.054,29.163 70.177 C 29.677 70.495,29.162 68.664,28.635 68.300 C 28.339 68.096,28.391 67.876,28.800 67.612 C 29.283 67.300,29.307 67.074,28.924 66.455 C 28.301 65.450,28.755 65.010,29.490 65.906 C 29.803 66.288,29.945 66.375,29.806 66.099 C 29.556 65.607,31.497 64.564,31.905 64.972 C 32.335 65.402,31.597 66.374,31.011 66.149 C 30.559 65.976,30.459 66.089,30.642 66.566 C 30.821 67.030,31.036 67.102,31.384 66.814 C 31.653 66.590,32.007 66.540,32.170 66.703 C 32.333 66.867,32.430 66.820,32.386 66.600 C 32.176 65.558,32.468 65.025,32.825 65.800 L 33.193 66.600 33.094 65.800 C 33.040 65.360,32.591 64.822,32.098 64.605 C 31.604 64.388,31.200 63.882,31.200 63.482 C 31.200 63.081,31.368 62.856,31.572 62.983 C 31.777 63.109,32.058 63.030,32.196 62.807 C 32.885 61.691,27.311 62.371,26.577 63.492 M33.867 62.667 C 33.280 63.254,34.127 63.996,35.600 64.186 C 35.710 64.201,36.070 64.371,36.400 64.565 C 36.878 64.846,36.902 64.812,36.519 64.397 C 36.185 64.036,36.158 63.652,36.433 63.139 C 36.835 62.387,34.564 61.969,33.867 62.667 M363.455 63.000 C 363.713 63.673,364.400 63.818,364.400 63.200 C 364.400 62.667,365.483 62.687,365.817 63.227 C 365.973 63.480,365.796 63.602,365.382 63.527 C 364.997 63.457,364.612 63.601,364.526 63.848 C 364.426 64.131,364.740 64.224,365.384 64.101 C 365.943 63.994,366.404 64.063,366.409 64.253 C 366.414 64.444,366.783 65.050,367.229 65.600 C 367.786 66.287,367.689 65.944,366.920 64.506 C 365.809 62.429,362.721 61.086,363.455 63.000 M367.783 62.772 C 367.909 62.977,367.830 63.258,367.607 63.396 C 367.383 63.534,367.200 63.427,367.200 63.157 C 367.200 62.887,367.092 62.775,366.960 62.907 C 366.498 63.368,367.208 63.923,367.996 63.717 C 368.455 63.597,368.676 63.317,368.519 63.055 C 368.369 62.805,368.551 62.847,368.923 63.149 C 369.295 63.451,369.600 63.982,369.600 64.329 C 369.600 64.820,369.493 64.853,369.120 64.480 C 368.381 63.741,367.991 63.908,368.140 64.900 C 368.241 65.575,368.566 65.818,369.438 65.871 L 370.600 65.941 369.400 65.618 C 368.138 65.278,368.135 65.226,369.360 64.996 C 370.171 64.844,370.784 64.118,370.794 63.300 C 370.804 62.463,372.327 62.740,372.610 63.630 C 372.754 64.087,372.963 64.370,373.073 64.260 C 374.030 63.303,372.612 62.400,370.149 62.400 C 368.649 62.400,367.650 62.557,367.783 62.772 M21.680 63.280 C 21.098 63.862,21.034 65.350,21.607 64.996 C 21.830 64.858,21.911 64.579,21.786 64.377 C 21.660 64.173,21.866 64.127,22.249 64.274 C 22.784 64.479,22.879 64.384,22.674 63.849 C 22.527 63.466,22.573 63.260,22.777 63.386 C 22.979 63.511,23.258 63.430,23.396 63.207 C 23.750 62.634,22.262 62.698,21.680 63.280 M32.650 63.415 C 32.410 64.040,33.415 64.719,33.884 64.249 C 34.021 64.112,33.839 64.000,33.479 64.000 C 33.062 64.000,32.909 63.783,33.055 63.400 C 33.182 63.070,33.196 62.800,33.086 62.800 C 32.976 62.800,32.779 63.077,32.650 63.415 M36.000 63.175 C 36.000 63.381,35.640 63.523,35.200 63.490 C 34.760 63.457,34.400 63.288,34.400 63.115 C 34.400 62.942,34.760 62.800,35.200 62.800 C 35.640 62.800,36.000 62.969,36.000 63.175 M40.190 63.216 C 40.021 63.489,40.323 63.538,41.066 63.360 C 42.599 62.992,42.744 62.800,41.490 62.800 C 40.917 62.800,40.332 62.987,40.190 63.216 M42.927 63.060 C 43.070 63.204,42.875 63.567,42.494 63.867 C 41.891 64.341,41.942 64.352,42.876 63.953 C 44.001 63.473,45.743 64.417,44.803 64.998 C 44.581 65.135,44.405 65.462,44.412 65.724 C 44.419 65.986,44.608 65.885,44.832 65.500 C 45.467 64.410,354.533 64.410,355.168 65.500 C 355.556 66.167,355.576 66.167,355.588 65.500 C 355.595 65.115,355.407 64.800,355.171 64.800 C 354.936 64.800,355.037 64.506,355.396 64.147 C 355.933 63.610,356.240 63.576,357.124 63.953 C 358.058 64.352,358.109 64.341,357.506 63.867 C 357.125 63.567,356.930 63.204,357.073 63.060 C 357.441 62.693,357.106 62.735,355.660 63.239 C 354.967 63.481,354.400 63.841,354.400 64.039 C 354.400 64.253,291.505 64.400,200.000 64.400 C 108.495 64.400,45.600 64.253,45.600 64.039 C 45.600 63.841,45.033 63.481,44.340 63.239 C 42.894 62.735,42.559 62.693,42.927 63.060 M358.200 63.200 C 359.311 63.678,360.095 63.678,359.800 63.200 C 359.664 62.980,359.068 62.813,358.476 62.828 C 357.515 62.853,357.486 62.893,358.200 63.200 M362.000 63.200 C 362.468 63.502,362.357 63.589,361.500 63.594 C 360.224 63.601,360.027 64.209,361.201 64.516 C 361.641 64.631,361.900 64.562,361.777 64.363 C 361.654 64.163,361.743 64.000,361.976 64.000 C 362.209 64.000,362.400 64.180,362.400 64.400 C 362.400 64.620,362.760 64.800,363.200 64.800 C 363.640 64.800,364.000 64.640,364.000 64.444 C 364.000 64.249,363.685 64.114,363.300 64.144 C 362.840 64.181,362.640 63.960,362.718 63.500 C 362.793 63.048,362.581 62.802,362.118 62.806 C 361.508 62.811,361.490 62.871,362.000 63.200 M374.900 63.103 C 375.285 63.188,375.600 63.538,375.600 63.878 C 375.600 64.408,375.499 64.420,374.900 63.956 C 374.382 63.555,374.408 63.658,375.000 64.351 L 375.800 65.288 376.053 64.144 C 376.210 63.432,376.323 63.293,376.353 63.776 C 376.398 64.513,376.427 64.516,376.921 63.840 C 377.420 63.158,377.467 63.159,378.021 63.864 C 378.564 64.554,378.550 64.563,377.800 64.007 L 377.000 63.414 377.800 64.351 C 378.474 65.140,378.621 65.184,378.733 64.625 C 378.972 63.436,378.036 62.827,376.064 62.889 C 375.039 62.920,374.515 63.017,374.900 63.103 M38.133 64.162 C 38.133 64.471,38.373 64.632,38.667 64.519 C 38.960 64.407,39.200 64.154,39.200 63.957 C 39.200 63.761,38.960 63.600,38.667 63.600 C 38.373 63.600,38.133 63.853,38.133 64.162 M373.594 65.100 C 373.589 65.687,373.528 65.705,373.216 65.212 C 373.011 64.888,372.704 64.763,372.533 64.933 C 372.363 65.104,372.488 65.411,372.812 65.616 C 373.788 66.233,374.340 66.058,374.116 65.200 C 373.858 64.213,373.602 64.164,373.594 65.100 M359.292 65.800 C 359.368 66.716,360.000 67.281,360.000 66.433 C 360.000 66.231,360.109 65.781,360.243 65.433 C 360.402 65.019,360.265 64.800,359.847 64.800 C 359.411 64.800,359.235 65.117,359.292 65.800 M35.902 65.466 C 36.179 65.577,36.305 65.831,36.182 66.030 C 36.059 66.228,36.238 66.284,36.579 66.153 C 37.509 65.796,37.327 65.196,36.300 65.232 C 35.805 65.249,35.626 65.354,35.902 65.466 M358.567 65.745 C 358.746 66.296,358.653 66.429,358.205 66.257 C 357.872 66.129,357.600 66.180,357.600 66.370 C 357.600 66.559,357.855 66.812,358.167 66.932 C 358.886 67.208,359.254 66.307,358.725 65.564 C 358.415 65.127,358.379 65.168,358.567 65.745 M361.784 65.627 C 361.639 65.861,361.638 66.171,361.782 66.315 C 361.926 66.459,362.211 66.312,362.416 65.988 C 362.725 65.499,362.789 65.522,362.794 66.124 C 362.797 66.522,362.983 66.734,363.207 66.596 C 363.430 66.458,363.518 66.191,363.402 66.003 C 363.285 65.814,363.507 65.578,363.895 65.477 C 364.283 65.376,364.026 65.272,363.324 65.246 C 362.622 65.221,361.929 65.392,361.784 65.627 M377.000 66.000 C 376.864 66.220,376.864 66.580,377.000 66.800 C 377.136 67.020,377.012 67.205,376.724 67.212 C 376.393 67.220,376.451 67.371,376.883 67.623 C 378.071 68.315,377.284 69.318,375.748 69.069 C 375.015 68.950,374.339 68.976,374.246 69.126 C 373.893 69.701,376.872 69.571,377.787 68.972 C 378.739 68.348,378.750 68.357,378.907 69.871 C 379.020 70.958,379.085 70.691,379.133 68.949 C 379.182 67.157,379.033 66.359,378.578 65.982 C 378.024 65.522,378.009 65.583,378.443 66.534 C 379.005 67.768,378.743 68.226,377.717 67.803 C 377.236 67.604,377.164 67.445,377.500 67.320 C 377.775 67.217,378.000 66.958,378.000 66.743 C 378.000 66.528,377.789 66.483,377.532 66.642 C 377.217 66.836,377.148 66.713,377.319 66.266 C 377.599 65.536,377.393 65.364,377.000 66.000 M360.633 66.346 C 360.479 66.596,360.543 66.800,360.776 66.800 C 361.009 66.800,361.179 66.935,361.153 67.100 C 360.992 68.116,361.222 68.479,361.749 68.042 C 362.340 67.552,363.600 67.841,363.600 68.466 C 363.600 68.676,363.808 68.719,364.062 68.562 C 364.350 68.384,364.415 68.452,364.234 68.745 C 364.075 69.002,363.790 69.117,363.600 69.000 C 363.410 68.883,363.142 68.970,363.004 69.193 C 362.722 69.651,363.220 69.721,364.167 69.357 C 364.515 69.224,364.800 68.853,364.800 68.534 C 364.800 68.196,364.994 68.073,365.262 68.238 C 365.548 68.415,365.615 68.348,365.438 68.062 C 365.281 67.808,365.328 67.600,365.543 67.600 C 365.758 67.600,366.024 67.825,366.135 68.100 C 366.256 68.399,366.350 68.318,366.368 67.900 C 366.387 67.490,366.110 67.197,365.700 67.194 C 365.095 67.189,365.081 67.129,365.600 66.756 C 366.082 66.410,366.042 66.381,365.400 66.610 C 364.960 66.767,364.375 66.904,364.100 66.914 C 363.825 66.925,363.600 67.053,363.600 67.198 C 363.600 67.796,361.767 67.345,361.357 66.646 C 361.059 66.139,360.822 66.041,360.633 66.346 M375.100 66.431 C 375.375 66.722,375.603 67.419,375.606 67.980 C 375.611 68.785,375.694 68.874,376.000 68.400 C 376.319 67.906,376.389 67.900,376.394 68.367 C 376.397 68.678,376.516 68.818,376.657 68.676 C 376.798 68.535,376.710 68.173,376.460 67.873 C 376.211 67.572,376.111 67.223,376.238 67.096 C 376.365 66.969,376.048 66.648,375.534 66.383 C 374.762 65.986,374.687 65.994,375.100 66.431 M354.936 66.938 C 354.791 67.192,354.818 67.268,354.996 67.106 C 355.175 66.945,355.577 67.125,355.890 67.506 C 356.203 67.888,356.355 67.990,356.227 67.734 C 356.099 67.478,356.216 67.195,356.487 67.104 C 356.758 67.014,356.579 66.836,356.090 66.708 C 355.598 66.579,355.083 66.682,354.936 66.938 M373.225 66.851 C 373.197 67.591,374.286 68.647,374.676 68.257 C 374.818 68.116,374.718 68.000,374.454 68.000 C 374.190 68.000,373.811 67.595,373.612 67.100 C 373.368 66.491,373.243 66.410,373.225 66.851 M362.208 68.814 C 362.369 69.073,362.080 69.158,361.432 69.040 C 360.516 68.874,360.447 68.940,360.814 69.627 C 361.365 70.655,361.776 70.602,362.563 69.400 C 363.155 68.497,363.157 68.400,362.586 68.400 C 362.238 68.400,362.068 68.586,362.208 68.814 M364.540 70.187 C 364.664 70.510,364.593 70.881,364.383 71.011 C 364.172 71.141,364.000 71.439,364.000 71.673 C 364.000 71.935,364.236 71.902,364.618 71.585 C 364.958 71.303,365.148 70.842,365.041 70.562 C 364.933 70.281,365.060 69.964,365.322 69.857 C 365.585 69.751,365.466 69.649,365.057 69.632 C 364.562 69.611,364.390 69.796,364.540 70.187 M376.400 70.880 C 375.702 71.476,375.621 71.652,376.133 71.466 C 376.536 71.320,377.001 71.200,377.166 71.200 C 377.331 71.200,377.467 70.930,377.467 70.600 C 377.467 70.270,377.452 70.006,377.433 70.013 C 377.415 70.021,376.950 70.411,376.400 70.880 M358.000 70.853 C 358.000 71.804,359.665 73.936,361.200 74.952 C 362.080 75.535,362.800 75.863,362.800 75.681 C 362.800 75.196,361.236 73.600,360.761 73.600 C 360.536 73.600,360.467 73.416,360.606 73.190 C 360.745 72.965,360.629 72.830,360.348 72.890 C 360.067 72.951,359.828 72.768,359.818 72.485 C 359.808 72.202,359.552 71.818,359.249 71.630 C 358.946 71.443,358.821 71.089,358.972 70.845 C 359.129 70.591,358.979 70.400,358.624 70.400 C 358.281 70.400,358.000 70.604,358.000 70.853 M360.400 71.125 C 360.400 71.304,360.961 71.979,361.648 72.625 C 362.894 73.799,362.895 73.799,362.599 72.800 C 362.120 71.185,360.400 69.875,360.400 71.125 M26.650 71.714 C 25.992 72.195,26.000 72.229,26.763 72.229 C 27.213 72.229,27.669 71.997,27.778 71.714 C 27.886 71.431,27.835 71.200,27.664 71.200 C 27.493 71.200,27.036 71.431,26.650 71.714 M24.406 72.524 C 24.402 73.270,24.245 73.551,23.938 73.362 C 23.652 73.185,23.585 73.252,23.762 73.538 C 23.934 73.817,23.781 74.000,23.375 74.000 C 22.822 74.000,22.791 74.107,23.200 74.600 C 23.474 74.930,23.991 75.197,24.349 75.194 C 24.906 75.189,24.915 75.134,24.412 74.816 C 24.088 74.611,23.949 74.318,24.102 74.165 C 24.539 73.728,25.578 74.793,25.334 75.427 C 25.214 75.740,24.974 75.907,24.800 75.800 C 24.472 75.597,23.995 76.517,24.006 77.333 C 24.010 77.653,24.115 77.638,24.338 77.287 C 24.559 76.938,24.832 77.286,25.191 78.374 C 25.482 79.254,25.872 79.879,26.060 79.763 C 26.247 79.647,26.403 79.788,26.406 80.076 C 26.411 80.457,26.518 80.436,26.800 80.000 C 27.017 79.664,27.190 79.604,27.194 79.863 C 27.205 80.709,28.803 79.926,29.047 78.955 C 29.178 78.431,29.473 78.122,29.704 78.265 C 29.951 78.417,30.004 78.331,29.834 78.055 C 29.675 77.798,29.396 77.679,29.214 77.791 C 29.033 77.904,28.783 77.732,28.659 77.411 C 28.536 77.089,28.607 76.719,28.817 76.589 C 29.028 76.459,29.200 76.543,29.200 76.776 C 29.200 77.009,29.402 77.200,29.649 77.200 C 29.941 77.200,29.907 76.965,29.549 76.525 C 29.071 75.938,29.086 75.883,29.667 76.100 C 30.042 76.240,30.419 76.127,30.529 75.841 C 30.853 74.997,29.673 75.271,28.748 76.255 C 28.032 77.018,27.970 77.282,28.390 77.788 C 28.804 78.287,28.796 78.401,28.349 78.406 C 27.889 78.411,27.887 78.468,28.343 78.756 C 28.737 79.006,28.760 79.178,28.425 79.384 C 28.172 79.541,27.703 79.451,27.382 79.185 C 26.941 78.819,26.800 78.816,26.800 79.175 C 26.800 79.435,26.628 79.541,26.417 79.411 C 25.833 79.050,26.388 78.020,27.033 78.268 C 27.345 78.388,27.600 78.276,27.600 78.019 C 27.600 77.763,27.441 77.651,27.247 77.771 C 26.798 78.048,26.898 75.986,27.369 75.238 C 27.619 74.842,27.580 74.765,27.237 74.977 C 26.640 75.346,25.202 74.122,25.194 73.238 C 25.191 72.887,25.013 72.330,24.800 72.000 C 24.499 71.534,24.411 71.651,24.406 72.524 M28.137 72.621 C 28.027 72.907,27.595 73.076,27.177 72.996 C 26.204 72.808,25.791 73.466,26.411 74.213 C 26.935 74.844,28.579 74.143,29.844 72.750 C 30.374 72.165,30.328 72.100,29.385 72.100 C 28.808 72.100,28.247 72.334,28.137 72.621 M377.428 72.355 C 377.272 72.607,376.949 72.692,376.711 72.545 C 376.449 72.383,376.392 72.463,376.566 72.745 C 376.725 73.002,377.007 73.119,377.193 73.004 C 377.379 72.889,377.612 73.021,377.711 73.298 C 377.810 73.574,378.022 73.679,378.182 73.530 C 378.342 73.382,378.302 72.953,378.092 72.579 C 377.829 72.109,377.623 72.040,377.428 72.355 M30.978 73.133 C 31.027 73.463,31.377 73.779,31.756 73.835 C 32.269 73.910,32.338 73.807,32.026 73.431 C 31.795 73.154,31.695 72.838,31.803 72.730 C 31.912 72.622,31.750 72.533,31.445 72.533 C 31.140 72.533,30.930 72.803,30.978 73.133 M375.420 72.768 C 375.295 72.970,375.501 73.444,375.878 73.821 C 376.524 74.467,376.513 74.490,375.681 74.226 C 375.197 74.072,374.786 74.093,374.769 74.273 C 374.753 74.453,374.680 74.903,374.609 75.272 C 374.521 75.728,374.670 75.871,375.073 75.717 C 375.557 75.531,375.568 75.426,375.134 75.150 C 374.742 74.902,374.818 74.811,375.420 74.806 C 375.871 74.803,376.416 74.624,376.630 74.410 C 376.883 74.157,377.190 74.293,377.506 74.798 C 377.916 75.455,377.868 75.642,377.196 76.002 C 376.724 76.255,376.400 76.273,376.400 76.047 C 376.400 75.838,376.625 75.576,376.900 75.465 C 377.199 75.344,377.118 75.250,376.700 75.232 C 375.929 75.197,375.800 75.871,376.400 76.800 C 376.658 77.200,376.790 77.233,376.794 76.900 C 376.797 76.625,377.058 76.400,377.373 76.400 C 377.907 76.400,378.658 74.975,378.479 74.300 C 378.436 74.135,378.580 74.000,378.800 74.000 C 379.020 74.000,379.189 73.595,379.175 73.100 L 379.149 72.200 378.788 73.100 C 378.382 74.109,378.106 74.172,376.602 73.601 C 376.024 73.381,375.663 73.021,375.800 72.801 C 375.936 72.580,375.957 72.400,375.847 72.400 C 375.737 72.400,375.545 72.565,375.420 72.768 M21.786 74.600 C 21.823 76.334,21.485 76.942,21.065 75.900 C 20.940 75.591,20.851 75.657,20.832 76.073 C 20.814 76.443,21.163 76.861,21.606 77.002 C 22.049 77.143,22.307 77.428,22.178 77.635 C 22.050 77.843,21.777 77.909,21.572 77.783 C 21.368 77.656,21.200 77.828,21.200 78.164 C 21.200 78.518,21.431 78.686,21.750 78.564 C 22.124 78.420,22.300 78.665,22.300 79.326 C 22.300 80.107,22.140 80.257,21.487 80.086 C 20.758 79.896,20.702 80.008,20.937 81.187 C 21.082 81.909,21.221 83.243,21.246 84.150 C 21.272 85.058,21.379 85.440,21.485 85.000 C 21.728 83.990,22.381 83.259,22.450 83.920 C 22.566 85.032,22.610 85.205,22.800 85.293 C 22.910 85.344,23.445 85.074,23.989 84.693 C 24.533 84.312,24.758 84.000,24.489 84.000 C 24.220 84.000,24.045 83.865,24.100 83.700 C 24.155 83.535,24.020 83.359,23.800 83.310 C 23.580 83.260,23.422 83.575,23.448 84.010 C 23.517 85.152,23.221 84.981,22.740 83.600 C 22.510 82.941,22.160 82.501,21.961 82.624 C 21.304 83.030,21.587 81.709,22.277 81.149 C 22.853 80.681,22.903 80.683,22.615 81.162 C 22.389 81.537,22.425 81.632,22.725 81.446 C 22.995 81.279,23.075 80.673,22.924 79.922 C 22.747 79.033,22.808 78.757,23.138 78.961 C 23.393 79.119,23.600 79.024,23.600 78.747 C 23.600 78.472,23.864 78.596,24.187 79.024 C 24.949 80.031,24.946 80.400,24.176 80.400 C 23.833 80.400,23.664 80.220,23.800 80.000 C 23.936 79.780,23.857 79.600,23.624 79.600 C 23.084 79.600,23.072 80.274,23.607 80.604 C 23.830 80.742,23.909 81.023,23.783 81.228 C 23.656 81.432,23.743 81.600,23.976 81.600 C 24.209 81.600,24.400 81.870,24.400 82.200 C 24.400 82.530,24.580 82.800,24.800 82.800 C 25.020 82.800,25.200 82.511,25.200 82.157 C 25.200 81.773,25.424 81.600,25.755 81.727 C 26.158 81.882,26.248 81.705,26.085 81.080 C 25.961 80.608,25.786 80.441,25.697 80.710 C 25.607 80.980,25.233 81.186,24.867 81.168 C 24.451 81.149,24.388 81.061,24.700 80.935 C 25.594 80.574,25.230 79.386,23.800 78.000 C 23.030 77.254,22.421 76.363,22.446 76.022 C 22.482 75.542,22.535 75.560,22.676 76.100 C 22.776 76.485,23.038 76.800,23.257 76.800 C 23.838 76.800,23.492 75.009,22.900 74.950 C 21.902 74.850,21.848 74.792,22.320 74.320 C 22.958 73.682,22.932 72.800,22.274 72.800 C 21.912 72.800,21.760 73.361,21.786 74.600 M29.105 74.029 C 28.723 74.252,28.218 74.832,27.983 75.317 C 27.585 76.140,27.596 76.150,28.146 75.468 C 28.470 75.065,29.065 74.486,29.468 74.180 C 30.322 73.533,30.109 73.444,29.105 74.029 M33.999 75.802 C 33.483 76.351,33.182 76.800,33.330 76.800 C 33.718 76.800,35.299 75.165,35.102 74.968 C 35.011 74.877,34.514 75.252,33.999 75.802 M26.451 76.277 C 26.906 76.837,26.907 76.897,26.457 76.627 C 26.046 76.379,25.977 76.497,26.173 77.116 C 26.316 77.565,26.245 78.048,26.016 78.190 C 25.607 78.443,25.500 78.195,25.500 77.000 C 25.500 75.400,25.648 75.287,26.451 76.277 M378.400 76.200 C 378.400 76.530,378.580 76.800,378.800 76.800 C 379.020 76.800,379.200 76.530,379.200 76.200 C 379.200 75.870,379.020 75.600,378.800 75.600 C 378.580 75.600,378.400 75.870,378.400 76.200 M34.000 78.000 C 33.467 78.345,33.467 78.390,34.000 78.410 C 34.332 78.422,34.108 78.699,33.500 79.029 C 32.895 79.357,32.400 79.858,32.400 80.143 C 32.400 80.749,30.908 82.172,29.900 82.528 C 28.128 83.153,30.290 80.196,32.600 78.834 C 33.333 78.401,33.316 78.384,32.400 78.624 C 29.615 79.355,28.495 80.846,29.056 83.079 C 29.380 84.370,31.209 83.300,33.076 80.727 C 33.824 79.697,34.653 78.767,34.918 78.659 C 35.267 78.517,35.256 78.454,34.876 78.432 C 34.588 78.414,34.464 78.220,34.600 78.000 C 34.907 77.503,34.768 77.503,34.000 78.000 M373.600 78.000 C 374.140 78.349,373.890 78.572,373.100 78.447 C 372.935 78.421,372.800 78.599,372.800 78.843 C 372.800 79.086,373.090 79.174,373.445 79.038 C 373.901 78.863,374.023 78.963,373.862 79.383 C 373.737 79.708,373.852 80.099,374.117 80.251 C 374.383 80.404,374.471 80.386,374.314 80.212 C 374.157 80.037,374.220 79.536,374.455 79.097 C 374.884 78.295,374.399 77.612,373.400 77.612 C 373.180 77.612,373.270 77.787,373.600 78.000 M369.052 80.171 C 369.899 80.970,370.650 81.450,370.721 81.237 C 370.897 80.709,369.477 79.342,368.395 78.998 C 367.722 78.785,367.879 79.065,369.052 80.171 M371.398 79.603 C 371.261 79.824,371.430 80.113,371.772 80.245 C 372.115 80.376,372.279 80.673,372.136 80.904 C 371.983 81.151,372.069 81.205,372.345 81.034 C 372.602 80.875,372.709 80.577,372.583 80.372 C 372.456 80.168,372.588 79.997,372.876 79.994 C 373.257 79.989,373.236 79.882,372.800 79.600 C 372.030 79.103,371.707 79.103,371.398 79.603 M374.825 80.524 C 374.811 81.176,374.968 81.544,375.200 81.400 C 375.420 81.264,375.600 81.351,375.600 81.594 C 375.600 81.837,375.375 81.999,375.100 81.954 C 374.376 81.838,373.200 82.418,373.200 82.892 C 373.200 83.117,373.481 83.065,373.830 82.775 C 374.267 82.412,374.544 82.384,374.730 82.682 C 374.898 82.950,375.272 82.752,375.719 82.157 C 376.114 81.631,376.243 81.200,376.006 81.200 C 375.768 81.200,375.411 80.795,375.212 80.300 C 374.867 79.441,374.850 79.452,374.825 80.524 M377.194 80.300 C 377.189 80.894,377.131 80.910,376.811 80.403 C 376.489 79.895,376.357 79.889,375.917 80.362 C 375.632 80.667,375.605 80.803,375.855 80.663 C 376.105 80.523,376.532 80.677,376.804 81.004 C 377.406 81.730,378.262 81.778,378.535 81.100 C 378.670 80.765,378.738 80.798,378.740 81.200 C 378.744 81.904,378.069 83.596,378.028 82.985 C 378.013 82.757,377.595 82.542,377.100 82.507 C 376.324 82.453,376.294 82.498,376.883 82.833 C 377.265 83.049,377.466 83.484,377.339 83.815 C 377.177 84.237,377.298 84.337,377.755 84.162 C 378.229 83.980,378.413 84.164,378.451 84.857 C 378.479 85.376,378.651 84.644,378.834 83.232 C 379.119 81.029,379.069 80.590,378.483 80.145 C 377.547 79.433,377.201 79.475,377.194 80.300 M366.741 80.600 C 367.161 81.471,368.646 82.910,369.600 83.370 C 369.976 83.551,369.940 83.446,369.506 83.090 C 369.125 82.777,368.930 82.404,369.073 82.260 C 369.216 82.117,369.033 82.000,368.667 82.000 C 368.300 82.000,368.000 81.700,368.000 81.333 C 368.000 80.967,367.883 80.784,367.740 80.927 C 367.596 81.070,367.226 80.875,366.917 80.494 C 366.401 79.856,366.387 79.865,366.741 80.600 M27.410 82.783 C 27.245 83.051,27.307 83.467,27.548 83.708 C 28.163 84.323,28.552 83.800,28.092 82.979 C 27.812 82.479,27.631 82.427,27.410 82.783 M375.440 83.535 C 375.322 83.727,375.650 84.283,376.170 84.772 C 376.691 85.261,377.222 85.487,377.353 85.276 C 377.484 85.064,377.215 84.793,376.755 84.672 C 376.296 84.552,376.031 84.274,376.166 84.055 C 376.302 83.835,376.243 83.550,376.034 83.421 C 375.826 83.292,375.558 83.344,375.440 83.535 M25.558 84.329 C 26.022 84.654,26.004 84.753,25.450 84.919 C 24.846 85.100,24.848 85.113,25.464 85.059 C 26.257 84.990,26.304 84.285,25.530 84.080 C 25.129 83.973,25.136 84.034,25.558 84.329 M21.452 86.900 C 21.030 88.476,21.164 104.400,21.600 104.400 C 21.852 104.400,22.033 101.108,22.088 95.500 L 22.177 86.600 22.400 95.600 L 22.623 104.600 22.712 95.933 C 22.760 91.166,22.691 86.981,22.557 86.633 C 22.212 85.734,21.734 85.850,21.452 86.900 M23.718 86.604 C 23.338 87.017,23.366 87.178,23.851 87.364 C 24.704 87.692,24.740 87.676,24.643 87.012 C 24.514 86.135,24.255 86.021,23.718 86.604 M375.569 86.084 C 375.180 87.556,375.359 87.872,376.256 87.294 C 376.586 87.081,376.558 86.858,376.156 86.484 C 375.850 86.201,375.586 86.021,375.569 86.084 M377.443 86.633 C 377.309 86.981,377.240 91.166,377.288 95.933 L 377.377 104.600 377.600 95.600 L 377.823 86.600 377.912 95.500 C 377.967 101.108,378.148 104.400,378.400 104.400 C 378.836 104.400,378.970 88.476,378.548 86.900 C 378.266 85.850,377.788 85.734,377.443 86.633 M25.200 95.600 C 25.200 100.513,25.283 104.450,25.385 104.348 C 25.658 104.076,25.701 87.168,25.430 86.897 C 25.304 86.770,25.200 90.687,25.200 95.600 M374.304 92.899 C 374.498 103.593,374.639 104.609,374.720 95.900 C 374.764 91.115,374.665 87.200,374.500 87.199 C 374.335 87.199,374.247 89.764,374.304 92.899 M23.200 95.800 C 23.200 101.000,23.346 104.000,23.600 104.000 C 23.854 104.000,24.000 101.000,24.000 95.800 C 24.000 90.600,23.854 87.600,23.600 87.600 C 23.346 87.600,23.200 90.600,23.200 95.800 M27.769 95.800 C 27.770 100.420,27.828 102.255,27.899 99.878 C 27.970 97.501,27.969 93.721,27.898 91.478 C 27.827 89.235,27.769 91.180,27.769 95.800 M372.169 95.800 C 372.170 100.420,372.228 102.255,372.299 99.878 C 372.370 97.501,372.369 93.721,372.298 91.478 C 372.227 89.235,372.169 91.180,372.169 95.800 M376.000 95.800 C 376.000 101.000,376.146 104.000,376.400 104.000 C 376.654 104.000,376.800 101.000,376.800 95.800 C 376.800 90.600,376.654 87.600,376.400 87.600 C 376.146 87.600,376.000 90.600,376.000 95.800 M219.482 153.175 C 218.887 153.883,218.398 154.853,218.396 155.331 C 218.380 159.180,215.408 167.879,213.380 170.013 C 212.044 171.418,210.956 174.779,209.562 181.800 C 208.294 188.186,206.963 191.676,204.896 194.030 C 203.537 195.578,202.102 200.255,200.999 206.733 C 200.203 211.411,199.115 214.349,197.379 216.513 C 195.101 219.351,194.774 220.254,193.187 228.062 C 191.577 235.988,190.534 238.909,188.474 241.255 C 186.770 243.196,186.520 243.946,184.782 252.332 C 183.225 259.844,182.132 262.832,180.176 264.923 C 179.027 266.150,177.200 270.276,177.200 271.642 C 177.200 276.030,174.564 284.644,172.011 288.600 C 167.670 295.324,168.477 297.600,175.200 297.600 C 180.155 297.600,180.908 297.162,181.390 294.000 C 182.436 287.134,184.020 282.487,186.234 279.785 C 188.021 277.603,189.302 273.943,190.356 268.000 C 191.592 261.034,192.793 258.064,195.448 255.409 C 196.307 254.550,197.816 249.337,198.807 243.800 C 199.832 238.075,200.883 235.324,202.985 232.861 C 204.887 230.633,205.525 228.691,207.405 219.400 C 208.615 213.424,209.359 211.520,211.568 208.745 C 213.509 206.308,213.704 205.728,215.364 197.494 C 216.796 190.386,217.859 187.573,220.139 184.862 C 221.780 182.910,222.715 180.094,223.810 173.800 C 224.809 168.056,225.731 165.362,227.810 162.112 C 228.818 160.537,229.976 158.082,230.383 156.658 L 231.124 154.068 230.209 153.209 C 229.428 152.475,228.655 152.316,224.930 152.119 L 220.565 151.889 219.482 153.175 M125.964 185.845 C 124.294 186.406,122.438 187.286,121.839 187.800 C 120.793 188.700,117.208 195.964,117.200 197.200 C 117.194 198.244,115.618 200.537,113.626 202.400 C 111.921 203.995,111.529 204.702,110.189 208.600 C 108.155 214.515,107.626 215.487,105.029 218.084 L 102.800 220.313 102.800 224.957 L 102.800 229.600 104.960 231.743 C 107.516 234.279,107.977 235.113,110.267 241.339 C 111.834 245.599,112.227 246.287,114.152 248.139 C 115.859 249.781,116.520 250.810,117.407 253.200 C 120.260 260.891,121.379 262.352,125.525 263.801 C 129.085 265.045,131.247 264.741,133.891 262.625 C 133.940 262.585,133.645 261.663,133.235 260.576 C 132.825 259.489,132.268 257.520,131.998 256.200 C 131.351 253.040,130.048 250.563,128.000 248.600 C 125.946 246.631,124.671 244.199,123.556 240.124 C 122.549 236.441,121.447 234.372,119.959 233.372 C 115.415 230.318,115.346 220.523,119.843 216.695 C 121.647 215.159,122.622 213.432,123.397 210.400 C 124.332 206.744,126.215 203.099,128.045 201.406 C 129.970 199.626,131.365 196.939,132.172 193.458 C 132.511 191.999,133.060 190.151,133.394 189.353 C 133.727 188.555,134.000 187.747,134.000 187.557 C 134.000 187.280,129.520 184.765,129.111 184.813 C 129.050 184.820,127.634 185.285,125.964 185.845 M267.900 186.226 C 265.728 187.357,265.811 187.173,266.610 189.086 C 266.946 189.889,267.588 191.986,268.037 193.745 C 269.066 197.774,269.641 198.876,271.908 201.162 C 273.835 203.105,275.949 207.193,276.765 210.554 C 277.446 213.364,278.546 215.311,280.136 216.524 C 284.822 220.098,284.884 229.253,280.251 233.469 C 278.244 235.295,277.784 236.173,276.244 241.110 C 275.135 244.666,272.955 248.475,271.619 249.190 C 270.562 249.756,268.584 253.682,268.200 255.978 C 268.037 256.956,267.565 258.739,267.152 259.940 C 266.157 262.832,266.095 262.659,268.559 263.868 L 270.718 264.927 273.627 263.991 C 278.316 262.484,279.188 261.474,282.255 254.000 C 283.727 250.411,284.277 249.532,286.036 247.959 C 287.998 246.204,288.176 245.870,289.822 240.867 C 291.603 235.454,293.192 232.568,294.889 231.659 C 296.706 230.687,297.201 229.237,297.186 224.938 C 297.170 220.489,296.941 219.882,294.484 217.779 C 292.384 215.982,291.768 214.780,289.627 208.315 C 288.100 203.702,287.814 203.151,286.546 202.367 C 284.979 201.398,283.579 199.390,282.804 197.000 C 279.697 187.413,273.804 183.153,267.900 186.226 " stroke="none" fill="#d5d5d5" fill-rule="evenodd"></path><path id="path1" d="M297.400 110.044 C 188.116 110.377,22.018 110.458,21.567 110.180 C 21.149 109.921,21.156 166.744,21.578 191.800 L 21.847 207.800 22.016 192.000 L 22.184 176.200 22.400 190.000 L 22.616 203.800 22.799 191.600 L 22.983 179.400 23.200 192.000 C 23.319 198.930,23.461 202.440,23.515 199.800 C 23.639 193.663,24.630 191.642,25.136 196.491 C 25.410 199.118,25.876 197.627,25.953 193.876 C 25.979 192.598,26.161 191.652,26.358 191.774 C 26.901 192.110,27.192 190.997,27.276 188.267 C 27.343 186.060,27.377 186.179,27.600 189.400 C 27.795 192.226,27.866 192.527,27.931 190.800 C 28.037 187.921,28.785 186.621,28.794 189.300 C 28.801 191.648,28.992 191.654,31.217 189.368 C 33.695 186.822,35.752 185.711,39.221 185.044 C 40.859 184.729,43.010 184.188,44.000 183.841 C 45.174 183.430,47.208 183.210,49.851 183.206 C 52.505 183.202,54.389 182.996,55.315 182.610 C 56.092 182.285,58.049 181.808,59.664 181.549 C 63.474 180.938,65.692 179.793,68.400 177.041 L 70.600 174.805 79.007 174.802 L 87.414 174.800 91.600 170.600 L 95.786 166.400 104.208 166.400 L 112.630 166.400 114.615 164.367 C 117.128 161.793,119.329 160.677,123.571 159.824 C 125.426 159.452,127.442 158.889,128.052 158.573 C 128.910 158.129,131.040 158.000,137.487 158.000 L 145.814 158.000 150.000 153.800 L 154.186 149.600 162.600 149.600 L 171.015 149.600 175.000 145.600 L 178.985 141.600 187.360 141.600 L 195.736 141.600 198.368 139.067 C 201.181 136.360,202.093 135.922,208.200 134.352 C 211.305 133.554,212.985 133.409,220.422 133.299 L 229.043 133.171 233.214 128.986 L 237.386 124.800 245.800 124.800 L 254.214 124.800 258.400 120.600 L 262.586 116.400 270.867 116.400 C 275.776 116.400,279.606 116.226,280.273 115.972 C 280.891 115.737,283.060 115.210,285.093 114.801 C 287.125 114.393,289.466 113.685,290.294 113.229 C 291.788 112.407,292.146 112.400,335.200 112.300 L 378.600 112.200 378.720 110.967 C 378.800 110.147,378.666 109.745,378.320 109.767 C 378.034 109.785,341.620 109.910,297.400 110.044 M215.342 146.658 C 213.734 147.008,213.157 148.149,212.913 151.462 C 212.661 154.871,212.457 155.185,210.487 155.194 C 205.627 155.217,205.419 155.895,204.556 174.503 L 204.319 179.605 203.260 179.812 C 197.998 180.838,196.832 183.032,196.808 191.955 C 196.804 193.581,196.587 196.958,196.326 199.460 L 195.852 204.009 194.229 204.446 C 190.258 205.515,189.337 207.326,188.790 215.143 C 188.334 221.650,187.624 226.800,187.184 226.800 C 186.575 226.800,182.598 230.446,182.036 231.519 C 181.125 233.257,180.772 235.435,180.399 241.600 C 179.959 248.887,179.657 249.913,177.579 251.191 C 174.223 253.254,173.017 256.317,172.380 264.400 C 171.685 273.220,171.417 274.197,169.357 275.404 C 165.763 277.510,164.452 281.384,164.146 290.800 C 163.804 301.349,164.837 302.525,174.600 302.701 C 183.530 302.862,185.109 301.960,186.542 295.879 C 187.210 293.045,187.375 292.754,188.656 292.147 C 191.844 290.634,193.230 287.206,194.397 277.951 C 195.515 269.094,195.442 269.362,196.876 268.768 C 200.406 267.306,201.713 264.555,202.628 256.661 C 202.963 253.767,203.406 250.230,203.611 248.800 C 203.816 247.370,203.988 246.003,203.992 245.763 C 203.996 245.523,204.703 245.116,205.563 244.858 C 208.837 243.877,210.627 240.323,211.023 234.013 C 211.412 227.831,212.332 223.772,213.483 223.156 C 217.578 220.964,218.941 217.796,219.793 208.488 C 220.515 200.604,220.456 200.777,222.797 199.739 C 226.509 198.094,227.704 194.636,228.353 183.668 C 228.727 177.341,228.780 177.220,231.471 176.458 C 235.662 175.272,237.044 169.966,236.712 156.335 C 236.464 146.179,237.038 146.651,224.800 146.545 C 220.070 146.504,215.814 146.555,215.342 146.658 M231.000 148.752 C 236.690 151.365,236.256 164.849,230.307 170.251 C 228.808 171.612,227.805 174.884,226.094 184.000 C 225.168 188.929,224.034 191.550,221.963 193.550 C 220.323 195.134,219.470 197.736,218.214 205.000 C 217.041 211.776,216.055 214.347,213.599 217.034 C 211.764 219.041,211.541 219.707,209.851 228.201 C 208.395 235.522,207.403 238.171,205.347 240.226 C 203.488 242.085,202.891 243.768,201.570 250.881 C 200.171 258.408,199.283 260.939,197.213 263.290 C 195.360 265.396,194.020 269.231,192.824 275.860 C 191.801 281.525,190.733 284.367,188.776 286.628 C 187.573 288.018,186.902 289.432,185.812 292.872 C 183.461 300.298,182.292 301.200,175.020 301.200 C 169.279 301.200,167.696 300.499,165.980 297.200 C 164.450 294.260,166.658 284.437,169.599 281.096 C 171.462 278.979,172.666 275.262,173.965 267.618 C 174.910 262.049,176.145 258.916,178.242 256.762 C 179.722 255.241,180.954 251.002,182.589 241.800 C 183.320 237.687,184.720 234.475,186.396 233.065 C 188.068 231.658,188.568 230.135,189.976 222.154 C 191.366 214.277,192.559 211.075,194.899 208.947 C 196.588 207.409,197.303 205.114,198.556 197.200 C 199.661 190.225,200.462 187.985,202.736 185.512 C 204.910 183.148,205.533 181.424,206.424 175.305 C 207.739 166.267,208.400 164.346,211.209 161.400 C 212.425 160.124,212.989 158.974,213.991 155.724 C 216.072 148.971,217.409 148.018,224.800 148.018 C 228.416 148.018,229.742 148.175,231.000 148.752 M119.864 179.970 C 114.272 180.242,113.808 180.554,113.415 184.310 C 112.858 189.635,112.851 189.649,110.400 190.260 C 106.880 191.138,105.645 193.594,104.996 201.000 C 104.562 205.966,104.661 205.786,102.053 206.325 C 97.449 207.276,96.713 209.716,96.754 223.882 C 96.797 238.463,97.961 242.028,102.985 242.971 C 104.464 243.248,104.861 244.170,105.622 249.092 C 106.195 252.794,108.294 256.239,110.835 257.646 C 112.391 258.507,112.633 258.852,113.327 261.200 C 114.869 266.418,115.216 267.145,116.562 267.976 C 120.233 270.245,135.661 270.117,140.592 267.777 C 145.691 265.358,144.545 256.347,138.947 254.840 L 137.314 254.400 137.058 251.900 C 136.209 243.624,134.593 240.143,131.011 238.875 C 128.741 238.071,128.806 238.230,127.975 231.362 C 127.463 227.127,127.626 222.265,128.501 215.610 L 129.000 211.820 130.669 211.536 C 134.696 210.851,135.551 209.646,136.581 203.200 C 137.698 196.213,137.789 196.049,140.934 195.401 C 143.529 194.867,144.862 192.068,144.847 187.187 C 144.829 181.422,143.768 180.638,135.152 180.020 C 129.176 179.592,127.752 179.587,119.864 179.970 M265.400 180.269 C 256.987 181.312,255.258 182.748,255.680 188.342 C 255.997 192.538,257.710 194.557,261.644 195.371 C 262.610 195.571,262.709 195.791,262.961 198.294 C 263.787 206.496,265.377 209.786,269.008 210.802 C 271.175 211.409,271.300 211.639,272.044 216.400 C 273.026 222.683,272.494 235.925,271.158 238.467 C 270.965 238.835,270.252 239.257,269.574 239.406 C 266.385 240.106,264.639 243.270,263.617 250.200 C 263.358 251.960,263.068 253.792,262.973 254.271 C 262.855 254.861,262.111 255.457,260.664 256.119 C 254.640 258.877,255.201 266.263,261.579 268.157 C 269.753 270.584,282.052 269.534,284.221 266.223 C 284.600 265.645,285.495 263.450,286.209 261.344 C 287.159 258.544,287.780 257.338,288.521 256.852 C 291.488 254.906,293.451 251.782,294.214 247.791 C 294.921 244.096,295.772 242.000,296.566 242.000 C 300.956 242.000,304.101 230.022,302.786 218.307 C 302.104 212.235,300.419 208.894,297.381 207.592 C 295.439 206.760,295.074 205.973,294.448 201.276 C 293.842 196.723,291.364 192.571,288.529 191.357 C 287.358 190.856,287.207 190.569,286.617 187.707 C 285.421 181.909,284.600 181.063,279.531 180.405 C 276.727 180.041,267.921 179.956,265.400 180.269 M132.778 181.795 C 141.269 183.582,144.128 188.852,138.288 191.956 C 137.113 192.581,136.319 194.301,135.424 198.159 C 134.417 202.500,132.776 205.635,130.511 207.546 C 128.339 209.377,127.576 210.784,126.579 214.800 C 126.224 216.230,125.513 218.210,125.000 219.200 C 123.594 221.912,123.239 228.370,124.406 230.009 C 125.271 231.224,126.797 235.267,126.804 236.363 C 126.812 237.738,128.916 241.422,130.434 242.722 C 132.423 244.425,134.215 247.911,135.282 252.154 C 136.252 256.015,137.275 258.169,138.529 258.991 C 139.035 259.322,139.837 260.284,140.311 261.128 L 141.174 262.663 139.687 264.092 C 136.093 267.547,131.091 268.845,125.137 267.867 C 118.473 266.773,117.177 265.662,114.789 259.000 C 114.080 257.020,113.322 254.911,113.106 254.313 C 112.891 253.716,112.380 253.121,111.971 252.991 C 110.746 252.602,108.176 249.367,107.628 247.524 C 106.090 242.349,104.399 239.045,102.235 236.982 C 96.880 231.878,96.768 217.991,102.041 212.950 C 104.241 210.846,105.035 209.342,106.838 203.860 C 108.229 199.631,109.141 198.251,111.253 197.173 C 112.125 196.728,112.897 196.147,112.968 195.882 C 116.068 184.327,117.242 182.796,123.788 181.778 C 128.156 181.099,129.482 181.102,132.778 181.795 M275.800 182.022 C 281.973 182.921,284.121 185.364,286.473 194.157 C 286.887 195.706,287.324 196.322,288.659 197.241 C 290.765 198.690,291.620 200.098,293.126 204.600 C 294.997 210.195,295.815 211.818,297.356 212.994 C 302.739 217.099,302.790 231.231,297.440 236.545 C 295.660 238.314,295.160 239.185,293.849 242.800 C 291.164 250.202,290.980 250.525,288.323 252.540 C 287.170 253.414,286.652 254.247,285.968 256.330 C 284.746 260.054,283.063 263.635,282.034 264.703 C 277.487 269.421,264.000 268.794,259.975 263.677 C 258.909 262.323,258.940 262.227,261.191 259.847 C 263.404 257.507,264.107 256.081,265.240 251.632 C 266.268 247.594,267.710 244.736,269.516 243.158 C 271.491 241.431,272.679 239.266,273.654 235.617 C 274.098 233.958,275.007 231.701,275.675 230.602 C 277.135 228.198,277.079 221.677,275.580 219.571 C 275.171 218.997,274.451 217.284,273.981 215.764 C 272.249 210.168,271.910 209.497,269.781 207.436 C 267.276 205.012,265.847 202.303,264.751 197.897 C 263.777 193.985,263.206 192.813,261.627 191.484 C 260.966 190.928,259.973 189.806,259.419 188.990 L 258.412 187.506 259.249 186.331 C 260.808 184.142,264.640 182.312,269.030 181.662 C 271.173 181.344,271.130 181.342,275.800 182.022 M20.901 327.400 C 20.905 328.280,20.987 328.593,21.083 328.095 C 21.179 327.598,21.175 326.878,21.075 326.495 C 20.975 326.113,20.896 326.520,20.901 327.400 M378.893 327.200 C 378.893 327.970,378.975 328.285,379.076 327.900 C 379.176 327.515,379.176 326.885,379.076 326.500 C 378.975 326.115,378.893 326.430,378.893 327.200 M21.600 335.532 C 21.600 336.051,22.696 336.904,23.150 336.738 C 23.357 336.662,23.093 336.277,22.563 335.881 C 22.033 335.486,21.600 335.329,21.600 335.532 M377.256 336.013 C 376.736 336.446,376.498 336.800,376.727 336.800 C 377.131 336.800,378.400 335.716,378.400 335.371 C 378.400 335.099,378.258 335.178,377.256 336.013 M33.700 337.487 C 34.305 337.578,35.295 337.578,35.900 337.487 C 36.505 337.395,36.010 337.320,34.800 337.320 C 33.590 337.320,33.095 337.395,33.700 337.487 M363.900 337.482 C 364.395 337.578,365.205 337.578,365.700 337.482 C 366.195 337.387,365.790 337.309,364.800 337.309 C 363.810 337.309,363.405 337.387,363.900 337.482 " stroke="none" fill="#6c6c6c" fill-rule="evenodd"></path><path id="path2" d="M378.800 111.000 L 378.600 112.200 335.200 112.300 C 292.146 112.400,291.788 112.407,290.294 113.229 C 289.466 113.685,287.125 114.393,285.093 114.801 C 283.060 115.210,280.891 115.737,280.273 115.972 C 279.606 116.226,275.776 116.400,270.867 116.400 L 262.586 116.400 258.400 120.600 L 254.214 124.800 245.800 124.800 L 237.386 124.800 233.214 128.986 L 229.043 133.171 220.422 133.299 C 212.985 133.409,211.305 133.554,208.200 134.352 C 202.093 135.922,201.181 136.360,198.368 139.067 L 195.736 141.600 187.360 141.600 L 178.985 141.600 175.000 145.600 L 171.015 149.600 162.600 149.600 L 154.186 149.600 150.000 153.800 L 145.814 158.000 137.487 158.000 C 131.040 158.000,128.910 158.129,128.052 158.573 C 127.442 158.889,125.426 159.452,123.571 159.824 C 119.329 160.677,117.128 161.793,114.615 164.367 L 112.630 166.400 104.208 166.400 L 95.786 166.400 91.600 170.600 L 87.414 174.800 79.007 174.802 L 70.600 174.805 68.400 177.041 C 65.692 179.793,63.474 180.938,59.664 181.549 C 58.049 181.808,56.092 182.285,55.315 182.610 C 54.389 182.996,52.505 183.202,49.851 183.206 C 47.208 183.210,45.174 183.430,44.000 183.841 C 43.010 184.188,40.859 184.729,39.221 185.044 C 35.752 185.711,33.695 186.822,31.217 189.368 C 28.992 191.654,28.801 191.648,28.794 189.300 C 28.785 186.621,28.037 187.921,27.931 190.800 C 27.866 192.527,27.795 192.226,27.600 189.400 C 27.377 186.179,27.343 186.060,27.276 188.267 C 27.192 190.997,26.901 192.110,26.358 191.774 C 26.161 191.652,25.979 192.598,25.953 193.876 C 25.876 197.627,25.410 199.118,25.136 196.491 C 24.630 191.642,23.639 193.663,23.515 199.800 C 23.461 202.440,23.319 198.930,23.200 192.000 L 22.983 179.400 22.799 191.600 L 22.616 203.800 22.400 190.000 L 22.184 176.200 22.046 192.000 C 21.970 200.690,21.828 207.503,21.732 207.139 C 21.635 206.776,21.415 184.906,21.241 158.539 C 20.968 117.115,20.922 125.822,20.899 222.600 C 20.883 289.788,21.018 334.280,21.235 333.800 C 21.491 333.235,21.532 333.479,21.375 334.631 C 21.087 336.746,21.769 337.377,23.945 337.009 C 24.904 336.847,25.620 336.908,25.779 337.166 C 26.140 337.751,374.000 337.768,374.000 337.183 C 374.000 336.924,374.708 336.866,375.917 337.027 C 377.465 337.232,377.947 337.146,378.417 336.579 C 378.924 335.969,379.014 321.718,379.110 227.639 C 379.219 120.389,379.187 108.676,378.800 111.000 M234.652 147.295 C 236.437 148.259,236.524 148.640,236.712 156.335 C 237.044 169.966,235.662 175.272,231.471 176.458 C 228.780 177.220,228.727 177.341,228.353 183.668 C 227.704 194.636,226.509 198.094,222.797 199.739 C 220.456 200.777,220.515 200.604,219.793 208.488 C 218.941 217.796,217.578 220.964,213.483 223.156 C 212.332 223.772,211.412 227.831,211.023 234.013 C 210.627 240.323,208.837 243.877,205.563 244.858 C 204.703 245.116,203.996 245.523,203.992 245.763 C 203.988 246.003,203.816 247.370,203.611 248.800 C 203.406 250.230,202.963 253.767,202.628 256.661 C 201.713 264.555,200.406 267.306,196.876 268.768 C 195.442 269.362,195.515 269.094,194.397 277.951 C 193.230 287.206,191.844 290.634,188.656 292.147 C 187.375 292.754,187.210 293.045,186.542 295.879 C 185.109 301.960,183.530 302.862,174.600 302.701 C 164.837 302.525,163.804 301.349,164.146 290.800 C 164.452 281.384,165.763 277.510,169.357 275.404 C 171.417 274.197,171.685 273.220,172.380 264.400 C 173.017 256.317,174.223 253.254,177.579 251.191 C 179.657 249.913,179.959 248.887,180.399 241.600 C 180.772 235.435,181.125 233.257,182.036 231.519 C 182.598 230.446,186.575 226.800,187.184 226.800 C 187.624 226.800,188.334 221.650,188.790 215.143 C 189.337 207.326,190.258 205.515,194.229 204.446 L 195.852 204.009 196.326 199.460 C 196.587 196.958,196.804 193.581,196.808 191.955 C 196.832 183.032,197.998 180.838,203.260 179.812 L 204.319 179.605 204.556 174.503 C 205.419 155.895,205.627 155.217,210.487 155.194 C 212.457 155.185,212.661 154.871,212.913 151.462 C 213.291 146.334,213.026 146.443,224.800 146.545 C 232.012 146.608,233.602 146.729,234.652 147.295 M135.152 180.020 C 143.768 180.638,144.829 181.422,144.847 187.187 C 144.862 192.068,143.529 194.867,140.934 195.401 C 137.789 196.049,137.698 196.213,136.581 203.200 C 135.551 209.646,134.696 210.851,130.669 211.536 L 129.000 211.820 128.501 215.610 C 127.626 222.265,127.463 227.127,127.975 231.362 C 128.806 238.230,128.741 238.071,131.011 238.875 C 134.593 240.143,136.209 243.624,137.058 251.900 L 137.314 254.400 138.947 254.840 C 144.545 256.347,145.691 265.358,140.592 267.777 C 135.661 270.117,120.233 270.245,116.562 267.976 C 115.216 267.145,114.869 266.418,113.327 261.200 C 112.633 258.852,112.391 258.507,110.835 257.646 C 108.294 256.239,106.195 252.794,105.622 249.092 C 104.861 244.170,104.464 243.248,102.985 242.971 C 97.961 242.028,96.797 238.463,96.754 223.882 C 96.713 209.716,97.449 207.276,102.053 206.325 C 104.661 205.786,104.562 205.966,104.996 201.000 C 105.645 193.594,106.880 191.138,110.400 190.260 C 112.851 189.649,112.858 189.635,113.415 184.310 C 113.808 180.554,114.272 180.242,119.864 179.970 C 127.752 179.587,129.176 179.592,135.152 180.020 M279.531 180.405 C 284.600 181.063,285.421 181.909,286.617 187.707 C 287.207 190.569,287.358 190.856,288.529 191.357 C 291.364 192.571,293.842 196.723,294.448 201.276 C 295.074 205.973,295.439 206.760,297.381 207.592 C 303.139 210.060,305.339 229.103,300.877 237.849 C 299.961 239.644,297.514 242.000,296.566 242.000 C 295.772 242.000,294.921 244.096,294.214 247.791 C 293.451 251.782,291.488 254.906,288.521 256.852 C 287.780 257.338,287.159 258.544,286.209 261.344 C 285.495 263.450,284.600 265.645,284.221 266.223 C 282.052 269.534,269.753 270.584,261.579 268.157 C 255.201 266.263,254.640 258.877,260.664 256.119 C 262.111 255.457,262.855 254.861,262.973 254.271 C 263.068 253.792,263.358 251.960,263.617 250.200 C 264.639 243.270,266.385 240.106,269.574 239.406 C 270.252 239.257,270.965 238.835,271.158 238.467 C 272.494 235.925,273.026 222.683,272.044 216.400 C 271.300 211.639,271.175 211.409,269.008 210.802 C 265.377 209.786,263.787 206.496,262.961 198.294 C 262.709 195.791,262.610 195.571,261.644 195.371 C 257.710 194.557,255.997 192.538,255.680 188.342 C 255.258 182.748,256.987 181.312,265.400 180.269 C 267.921 179.956,276.727 180.041,279.531 180.405 M23.150 336.738 C 22.696 336.904,21.600 336.051,21.600 335.532 C 21.600 335.329,22.033 335.486,22.563 335.881 C 23.093 336.277,23.357 336.662,23.150 336.738 M378.400 335.371 C 378.400 335.716,377.131 336.800,376.727 336.800 C 376.498 336.800,376.736 336.446,377.256 336.013 C 378.258 335.178,378.400 335.099,378.400 335.371 " stroke="none" fill="#646464" fill-rule="evenodd"></path><path id="path3" d="M118.300 62.700 C 163.235 62.756,236.765 62.756,281.700 62.700 C 326.635 62.644,289.870 62.598,200.000 62.598 C 110.130 62.598,73.365 62.644,118.300 62.700 M319.626 85.912 C 318.404 87.134,318.400 87.155,318.400 91.600 C 318.400 97.888,318.897 98.400,325.000 98.400 C 331.080 98.400,331.600 97.873,331.600 91.706 C 331.600 85.748,331.223 85.356,325.124 84.962 L 320.853 84.686 319.626 85.912 M344.500 86.075 C 343.202 87.436,343.200 87.445,343.200 91.641 L 343.200 95.843 344.519 97.122 C 345.833 98.395,345.856 98.400,350.041 98.400 L 354.243 98.400 355.522 97.081 C 356.789 95.773,356.800 95.728,356.800 91.687 C 356.800 85.816,356.291 85.297,350.200 84.958 L 345.800 84.713 344.500 86.075 M378.800 106.300 C 378.800 106.465,298.250 106.559,199.800 106.510 L 20.800 106.420 20.806 108.710 C 20.809 109.969,20.949 110.785,21.117 110.521 C 21.284 110.258,21.624 110.168,21.872 110.321 C 22.120 110.475,77.915 110.490,145.862 110.354 C 213.808 110.219,294.105 110.080,324.300 110.044 L 379.200 109.978 379.200 107.989 C 379.200 106.895,379.110 106.000,379.000 106.000 C 378.890 106.000,378.800 106.135,378.800 106.300 M218.569 148.759 C 216.260 149.807,215.421 151.083,213.991 155.724 C 212.989 158.974,212.425 160.124,211.209 161.400 C 208.400 164.346,207.739 166.267,206.424 175.305 C 205.533 181.424,204.910 183.148,202.736 185.512 C 200.462 187.985,199.661 190.225,198.556 197.200 C 197.303 205.114,196.588 207.409,194.899 208.947 C 192.559 211.075,191.366 214.277,189.976 222.154 C 188.568 230.135,188.068 231.658,186.396 233.065 C 184.720 234.475,183.320 237.687,182.589 241.800 C 180.954 251.002,179.722 255.241,178.242 256.762 C 176.145 258.916,174.910 262.049,173.965 267.618 C 172.666 275.262,171.462 278.979,169.599 281.096 C 166.658 284.437,164.450 294.260,165.980 297.200 C 167.696 300.499,169.279 301.200,175.020 301.200 C 182.292 301.200,183.461 300.298,185.812 292.872 C 186.902 289.432,187.573 288.018,188.776 286.628 C 190.733 284.367,191.801 281.525,192.824 275.860 C 194.020 269.231,195.360 265.396,197.213 263.290 C 199.283 260.939,200.171 258.408,201.570 250.881 C 202.891 243.768,203.488 242.085,205.347 240.226 C 207.403 238.171,208.395 235.522,209.851 228.201 C 211.541 219.707,211.764 219.041,213.599 217.034 C 216.055 214.347,217.041 211.776,218.214 205.000 C 219.470 197.736,220.323 195.134,221.963 193.550 C 224.034 191.550,225.168 188.929,226.094 184.000 C 227.805 174.884,228.808 171.612,230.307 170.251 C 234.825 166.148,236.631 154.026,233.285 150.258 C 231.230 147.945,222.352 147.040,218.569 148.759 M230.028 151.215 C 230.435 151.433,231.226 152.212,231.786 152.946 L 232.804 154.281 231.801 158.237 C 231.097 161.009,230.282 163.031,229.075 164.996 C 226.795 168.709,226.251 170.176,225.221 175.400 C 224.020 181.488,222.657 185.445,220.754 188.374 C 218.765 191.436,217.844 194.018,216.571 200.104 C 215.150 206.900,214.398 208.961,212.055 212.479 C 210.457 214.878,209.501 217.683,208.001 224.376 C 206.573 230.746,205.826 232.772,203.750 235.901 C 201.997 238.543,201.062 241.235,199.619 247.800 C 198.253 254.012,197.363 256.470,195.416 259.402 C 193.627 262.098,192.774 264.518,191.400 270.800 C 190.003 277.187,189.123 279.648,187.161 282.660 C 185.334 285.465,183.894 289.272,183.122 293.340 C 182.661 295.771,182.405 296.262,180.851 297.695 L 179.099 299.310 175.009 299.101 C 170.531 298.872,169.664 298.575,168.430 296.842 L 167.605 295.683 168.596 291.776 C 169.247 289.211,170.132 286.965,171.175 285.235 C 173.442 281.474,173.917 280.155,175.203 274.045 C 176.615 267.334,177.477 264.823,179.550 261.386 C 181.453 258.231,182.490 255.271,183.610 249.800 C 184.737 244.297,185.762 241.344,187.609 238.281 C 189.818 234.619,190.554 232.551,191.767 226.600 C 193.181 219.656,193.770 217.923,195.878 214.493 C 198.108 210.866,198.853 208.754,200.216 202.200 C 201.497 196.037,202.206 194.031,204.364 190.460 C 206.376 187.130,207.275 184.540,208.583 178.303 C 209.947 171.806,210.440 170.409,212.768 166.455 C 214.571 163.390,215.011 162.167,216.817 155.200 C 217.132 153.982,217.812 152.897,218.917 151.844 L 220.551 150.289 224.920 150.554 C 227.323 150.700,229.622 150.998,230.028 151.215 M123.788 181.778 C 117.242 182.796,116.068 184.327,112.968 195.882 C 112.897 196.147,112.125 196.728,111.253 197.173 C 109.141 198.251,108.229 199.631,106.838 203.860 C 105.035 209.342,104.241 210.846,102.041 212.950 C 96.768 217.991,96.880 231.878,102.235 236.982 C 104.399 239.045,106.090 242.349,107.628 247.524 C 108.176 249.367,110.746 252.602,111.971 252.991 C 112.380 253.121,112.891 253.716,113.106 254.313 C 113.322 254.911,114.080 257.020,114.789 259.000 C 117.177 265.662,118.473 266.773,125.137 267.867 C 131.091 268.845,136.093 267.547,139.687 264.092 L 141.174 262.663 140.311 261.128 C 139.837 260.284,139.035 259.322,138.529 258.991 C 137.275 258.169,136.252 256.015,135.282 252.154 C 134.215 247.911,132.423 244.425,130.434 242.722 C 128.916 241.422,126.812 237.738,126.804 236.363 C 126.797 235.267,125.271 231.224,124.406 230.009 C 123.239 228.370,123.594 221.912,125.000 219.200 C 125.513 218.210,126.224 216.230,126.579 214.800 C 127.576 210.784,128.339 209.377,130.511 207.546 C 132.776 205.635,134.417 202.500,135.424 198.159 C 136.319 194.301,137.113 192.581,138.288 191.956 C 147.167 187.236,136.562 179.793,123.788 181.778 M269.030 181.662 C 264.640 182.312,260.808 184.142,259.249 186.331 L 258.412 187.506 259.419 188.990 C 259.973 189.806,260.966 190.928,261.627 191.484 C 263.206 192.813,263.777 193.985,264.751 197.897 C 265.847 202.303,267.276 205.012,269.781 207.436 C 271.910 209.497,272.249 210.168,273.981 215.764 C 274.451 217.284,275.171 218.997,275.580 219.571 C 277.079 221.677,277.135 228.198,275.675 230.602 C 275.007 231.701,274.098 233.958,273.654 235.617 C 272.679 239.266,271.491 241.431,269.516 243.158 C 267.710 244.736,266.268 247.594,265.240 251.632 C 264.107 256.081,263.404 257.507,261.191 259.847 C 258.940 262.227,258.909 262.323,259.975 263.677 C 264.000 268.794,277.487 269.421,282.034 264.703 C 283.063 263.635,284.746 260.054,285.968 256.330 C 286.652 254.247,287.170 253.414,288.323 252.540 C 290.980 250.525,291.164 250.202,293.849 242.800 C 295.160 239.185,295.660 238.314,297.440 236.545 C 302.790 231.231,302.739 217.099,297.356 212.994 C 295.815 211.818,294.997 210.195,293.126 204.600 C 291.620 200.098,290.765 198.690,288.659 197.241 C 287.324 196.322,286.887 195.706,286.473 194.157 C 284.121 185.364,281.973 182.921,275.800 182.022 C 271.130 181.342,271.173 181.344,269.030 181.662 M132.094 184.395 C 133.262 184.832,134.826 185.697,135.570 186.318 L 136.923 187.448 135.885 189.224 C 135.315 190.201,134.324 192.620,133.683 194.600 C 132.264 198.988,131.299 200.927,129.411 203.187 C 127.370 205.629,126.138 207.853,125.046 211.066 C 123.783 214.779,123.165 215.907,121.017 218.424 L 119.200 220.552 119.200 225.018 C 119.200 229.291,119.246 229.532,120.257 230.624 C 122.343 232.875,123.568 234.899,124.433 237.528 C 125.628 241.161,127.242 244.296,129.000 246.400 C 130.897 248.670,132.484 251.846,133.600 255.600 C 134.090 257.250,134.941 259.490,135.492 260.579 L 136.493 262.557 135.547 263.337 C 132.128 266.153,128.994 266.602,124.086 264.980 C 120.096 263.661,119.722 263.259,117.408 257.800 C 115.284 252.788,113.905 250.267,112.876 249.518 C 111.591 248.583,110.145 246.245,109.215 243.600 C 107.570 238.924,106.158 236.205,104.272 234.081 C 99.643 228.870,99.704 220.964,104.413 215.672 C 105.769 214.149,106.677 212.559,107.611 210.072 C 109.898 203.981,110.778 202.301,112.802 200.161 C 114.903 197.939,115.285 197.245,117.187 192.200 C 119.330 186.514,120.197 185.697,125.644 184.233 C 128.582 183.442,129.618 183.468,132.094 184.395 M275.055 184.625 C 280.088 186.080,280.785 186.885,283.757 194.680 C 284.517 196.675,285.518 198.304,287.012 199.979 C 289.637 202.920,289.675 202.990,291.451 208.092 C 293.190 213.088,293.524 213.721,295.619 216.000 C 300.111 220.885,300.218 228.767,295.857 233.541 C 293.488 236.136,293.036 236.954,291.435 241.554 C 289.657 246.662,289.509 246.933,287.040 249.616 C 285.429 251.365,284.554 252.893,282.881 256.880 C 280.327 262.965,279.739 263.607,275.489 264.958 C 271.238 266.309,270.354 266.276,266.936 264.638 C 263.426 262.956,263.385 262.887,264.579 260.744 C 265.114 259.785,266.084 257.380,266.735 255.400 C 268.417 250.281,268.904 249.275,271.002 246.589 C 273.242 243.722,274.020 242.263,275.557 238.054 C 276.766 234.741,278.356 232.106,280.158 230.430 C 281.157 229.501,281.200 229.281,281.200 225.144 L 281.200 220.827 279.403 218.803 C 277.337 216.477,276.404 214.785,275.198 211.171 C 274.171 208.093,272.750 205.532,270.950 203.512 C 269.313 201.676,267.526 198.172,266.617 195.021 C 266.240 193.712,265.363 191.552,264.669 190.221 C 263.974 188.889,263.351 187.684,263.283 187.541 C 262.959 186.856,269.164 183.634,270.855 183.609 C 271.216 183.604,273.106 184.061,275.055 184.625 " stroke="none" fill="#9c9c9c" fill-rule="evenodd"></path><path id="path4" d="M27.539 63.076 C 27.506 63.254,27.460 63.670,27.439 64.000 C 27.388 64.762,25.753 64.866,25.155 64.145 C 24.861 63.792,24.848 63.600,25.118 63.600 C 25.346 63.600,25.600 63.800,25.681 64.044 C 25.771 64.312,26.061 64.207,26.415 63.779 C 27.274 62.739,23.777 63.245,22.706 64.316 C 21.541 65.482,21.537 67.772,22.700 67.839 C 23.779 67.901,23.812 67.686,22.919 66.389 C 22.334 65.539,22.329 65.473,22.883 65.919 C 23.317 66.269,23.614 66.301,23.788 66.019 C 23.931 65.789,24.262 65.606,24.524 65.613 C 24.786 65.620,24.651 65.890,24.224 66.213 C 23.546 66.725,23.534 66.800,24.124 66.800 C 25.518 66.800,25.691 66.152,24.664 64.780 C 24.409 64.440,24.608 64.588,25.107 65.111 C 25.838 65.877,26.255 66.008,27.260 65.787 C 27.946 65.636,28.313 65.393,28.075 65.247 C 27.626 64.969,27.648 63.819,28.112 63.354 C 28.260 63.206,28.494 63.380,28.632 63.740 C 28.771 64.101,29.033 64.304,29.214 64.191 C 29.396 64.079,29.658 64.170,29.796 64.393 C 29.934 64.617,30.329 64.800,30.673 64.800 C 31.209 64.800,31.220 64.706,30.749 64.139 C 30.447 63.775,30.290 63.370,30.400 63.239 C 30.510 63.107,29.925 62.944,29.100 62.876 C 28.275 62.808,27.573 62.898,27.539 63.076 M31.200 63.590 C 31.200 63.931,31.604 64.388,32.098 64.605 C 32.591 64.822,33.040 65.360,33.094 65.800 L 33.193 66.600 32.825 65.800 C 32.468 65.025,32.176 65.558,32.386 66.600 C 32.430 66.820,32.333 66.867,32.170 66.703 C 32.007 66.540,31.653 66.590,31.384 66.814 C 31.036 67.102,30.821 67.030,30.642 66.566 C 30.459 66.089,30.559 65.976,31.011 66.149 C 31.597 66.374,32.335 65.402,31.905 64.972 C 31.506 64.573,29.554 65.602,29.838 66.061 C 30.018 66.354,29.948 66.415,29.646 66.228 C 29.375 66.061,29.273 65.557,29.410 65.066 C 29.602 64.381,29.565 64.325,29.232 64.800 C 28.948 65.206,28.810 65.238,28.806 64.900 C 28.803 64.625,28.609 64.400,28.376 64.400 C 28.135 64.400,28.089 64.615,28.270 64.900 C 28.445 65.175,28.606 65.490,28.628 65.600 C 28.651 65.710,28.815 66.133,28.993 66.540 C 29.207 67.030,29.128 67.402,28.758 67.640 C 28.374 67.888,28.335 68.093,28.635 68.300 C 29.162 68.664,29.677 70.495,29.163 70.177 C 28.963 70.054,28.800 70.122,28.800 70.330 C 28.800 70.537,28.350 70.793,27.800 70.898 C 27.129 71.026,26.800 70.910,26.800 70.545 C 26.800 70.245,26.609 70.000,26.376 70.000 C 26.143 70.000,26.084 70.225,26.245 70.500 C 26.406 70.775,26.177 70.685,25.736 70.299 C 25.296 69.914,24.815 69.719,24.668 69.866 C 24.520 70.013,24.400 69.909,24.400 69.635 C 24.400 69.066,26.904 69.445,27.133 70.049 C 27.357 70.638,28.410 70.440,28.671 69.760 C 28.806 69.407,28.666 68.963,28.358 68.772 C 27.901 68.487,27.891 68.277,28.304 67.611 C 28.710 66.956,28.710 66.817,28.304 66.899 C 28.027 66.954,27.845 66.775,27.900 66.500 C 27.955 66.225,27.820 66.000,27.600 66.000 C 27.380 66.000,27.179 66.405,27.154 66.900 C 27.119 67.577,27.062 67.627,26.924 67.100 C 26.653 66.062,26.042 66.250,26.272 67.300 C 26.431 68.023,26.385 68.082,26.041 67.600 C 25.735 67.172,25.610 67.147,25.606 67.514 C 25.602 67.891,25.402 67.922,24.857 67.630 C 24.252 67.307,24.029 67.419,23.657 68.235 C 23.112 69.430,23.035 70.480,23.551 69.666 C 23.808 69.260,23.941 69.332,24.107 69.966 C 24.227 70.425,24.198 70.800,24.043 70.800 C 23.517 70.800,22.800 69.844,22.800 69.145 C 22.800 68.696,22.516 68.471,22.000 68.510 C 21.378 68.557,21.200 68.857,21.200 69.862 C 21.200 71.188,21.749 71.929,22.196 71.207 C 22.334 70.983,22.268 70.800,22.048 70.800 C 21.829 70.800,21.676 70.452,21.708 70.028 C 21.784 69.018,22.176 69.293,22.796 70.791 C 23.072 71.456,23.455 72.000,23.649 72.000 C 23.842 72.000,24.000 72.174,24.000 72.387 C 24.000 72.601,23.730 72.671,23.400 72.545 C 23.070 72.418,22.800 72.053,22.800 71.734 C 22.800 71.414,22.617 71.266,22.393 71.404 C 22.170 71.542,22.089 71.821,22.214 72.023 C 22.339 72.225,22.207 72.301,21.921 72.192 C 21.539 72.046,21.373 72.580,21.297 74.196 C 21.241 75.408,21.336 76.400,21.509 76.400 C 21.682 76.400,21.807 75.590,21.786 74.600 C 21.760 73.361,21.912 72.800,22.274 72.800 C 22.932 72.800,22.958 73.682,22.320 74.320 C 21.848 74.792,21.902 74.850,22.900 74.950 C 23.492 75.009,23.838 76.800,23.257 76.800 C 23.038 76.800,22.776 76.485,22.676 76.100 C 22.535 75.560,22.482 75.542,22.446 76.022 C 22.421 76.363,23.030 77.254,23.800 78.000 C 25.230 79.386,25.594 80.574,24.700 80.935 C 24.388 81.061,24.451 81.149,24.867 81.168 C 25.233 81.186,25.607 80.980,25.697 80.710 C 25.786 80.441,25.961 80.608,26.085 81.080 C 26.248 81.705,26.158 81.882,25.755 81.727 C 25.424 81.600,25.200 81.773,25.200 82.157 C 25.200 82.511,25.020 82.800,24.800 82.800 C 24.580 82.800,24.400 82.530,24.400 82.200 C 24.400 81.870,24.250 81.600,24.067 81.600 C 23.883 81.600,23.733 81.330,23.733 81.000 C 23.733 80.670,23.973 80.400,24.267 80.400 C 24.948 80.400,24.925 79.999,24.187 79.024 C 23.864 78.596,23.600 78.472,23.600 78.747 C 23.600 79.024,23.393 79.119,23.138 78.961 C 22.808 78.757,22.747 79.033,22.924 79.922 C 23.075 80.673,22.995 81.279,22.725 81.446 C 22.425 81.632,22.389 81.537,22.615 81.162 C 22.903 80.683,22.853 80.681,22.277 81.149 C 21.587 81.709,21.304 83.030,21.961 82.624 C 22.160 82.501,22.510 82.941,22.740 83.600 C 23.207 84.940,23.520 85.161,23.448 84.100 C 23.422 83.715,23.580 83.400,23.800 83.400 C 24.020 83.400,24.155 83.535,24.100 83.700 C 24.045 83.865,24.220 84.000,24.489 84.000 C 24.758 84.000,24.623 84.249,24.189 84.553 C 23.214 85.235,22.616 85.326,22.550 84.800 C 22.523 84.580,22.478 84.184,22.450 83.920 C 22.383 83.273,21.740 83.972,21.457 85.000 C 21.336 85.440,21.286 84.666,21.345 83.280 C 21.410 81.787,21.318 81.003,21.121 81.355 C 20.938 81.682,20.836 87.456,20.894 94.185 L 21.000 106.420 199.896 106.510 C 348.565 106.585,378.826 106.510,378.996 106.067 C 379.345 105.156,379.163 82.246,378.800 81.400 C 378.611 80.960,378.444 80.825,378.428 81.100 C 378.389 81.787,377.405 81.729,376.804 81.004 C 376.532 80.677,376.105 80.523,375.855 80.663 C 375.605 80.803,375.632 80.667,375.917 80.362 C 376.357 79.889,376.489 79.895,376.811 80.403 C 377.131 80.910,377.189 80.894,377.194 80.300 C 377.201 79.538,377.804 79.359,378.200 80.000 C 378.702 80.813,379.003 80.353,379.116 78.600 C 379.180 77.610,379.067 76.800,378.866 76.800 C 378.657 76.800,378.575 74.977,378.676 72.537 L 378.851 68.274 377.839 68.938 C 376.884 69.564,373.880 69.721,374.246 69.126 C 374.339 68.976,375.015 68.950,375.748 69.069 C 377.284 69.318,378.071 68.315,376.883 67.623 C 376.508 67.404,376.419 67.219,376.687 67.212 C 376.956 67.205,377.078 66.948,376.960 66.640 C 376.842 66.333,376.936 65.963,377.168 65.820 C 377.434 65.655,377.493 65.813,377.327 66.245 C 377.149 66.711,377.215 66.838,377.532 66.642 C 377.789 66.483,378.000 66.543,378.000 66.776 C 378.000 67.009,377.809 67.200,377.576 67.200 C 377.343 67.200,377.264 67.380,377.400 67.600 C 377.838 68.309,378.400 68.026,378.394 67.100 C 378.386 65.894,377.449 64.176,376.867 64.300 C 376.610 64.355,376.382 64.175,376.360 63.900 C 376.338 63.625,376.202 63.822,376.057 64.338 L 375.793 65.276 374.997 64.345 C 374.403 63.651,374.379 63.552,374.900 63.956 C 375.502 64.422,375.600 64.407,375.600 63.849 C 375.600 62.893,373.210 62.944,373.173 63.900 C 373.151 64.457,373.057 64.417,372.712 63.700 C 372.254 62.750,370.804 62.448,370.794 63.300 C 370.784 64.118,370.171 64.844,369.360 64.996 C 368.135 65.226,368.138 65.278,369.400 65.618 L 370.600 65.941 369.438 65.871 C 368.566 65.818,368.241 65.575,368.140 64.900 C 367.991 63.908,368.381 63.741,369.120 64.480 C 369.493 64.853,369.600 64.820,369.600 64.329 C 369.600 63.982,369.295 63.451,368.923 63.149 C 368.551 62.847,368.369 62.805,368.519 63.055 C 368.677 63.318,368.447 63.599,367.971 63.723 C 367.496 63.848,367.067 63.720,366.952 63.419 C 366.707 62.780,364.712 62.726,364.300 63.347 C 364.088 63.668,363.883 63.624,363.600 63.200 C 363.252 62.678,363.152 62.675,362.826 63.181 C 362.354 63.915,362.706 64.522,363.440 64.240 C 363.748 64.122,364.000 64.199,364.000 64.413 C 364.000 64.626,363.640 64.800,363.200 64.800 C 362.760 64.800,362.400 64.620,362.400 64.400 C 362.400 64.180,362.209 64.000,361.976 64.000 C 361.743 64.000,361.654 64.163,361.777 64.363 C 361.900 64.562,361.641 64.631,361.201 64.516 C 360.027 64.209,360.224 63.601,361.500 63.594 C 362.357 63.589,362.468 63.502,362.000 63.200 C 361.207 62.687,359.483 62.687,359.800 63.200 C 360.110 63.701,359.543 63.711,358.267 63.226 C 357.036 62.757,356.582 63.140,357.506 63.867 C 358.109 64.341,358.058 64.352,357.124 63.953 C 356.240 63.576,355.933 63.610,355.396 64.147 C 355.037 64.506,354.936 64.800,355.171 64.800 C 355.407 64.800,355.595 65.115,355.588 65.500 C 355.576 66.167,355.556 66.167,355.168 65.500 C 354.781 64.835,346.969 64.800,200.000 64.800 C 53.031 64.800,45.219 64.835,44.832 65.500 C 44.608 65.885,44.419 65.986,44.412 65.724 C 44.405 65.462,44.581 65.135,44.803 64.998 C 45.743 64.417,44.001 63.473,42.876 63.953 C 41.942 64.352,41.891 64.341,42.494 63.867 C 43.462 63.105,42.977 62.805,41.473 63.237 C 39.901 63.687,39.899 63.687,40.200 63.200 C 40.344 62.967,39.945 62.800,39.247 62.800 C 38.587 62.800,37.924 62.999,37.774 63.243 C 37.583 63.551,37.394 63.521,37.150 63.143 C 36.859 62.691,36.737 62.699,36.423 63.187 C 36.176 63.571,36.210 63.985,36.523 64.387 C 36.923 64.901,36.903 64.925,36.400 64.534 C 36.070 64.278,35.620 64.051,35.400 64.029 C 34.405 63.933,33.599 63.506,33.594 63.073 C 33.590 62.795,33.431 62.848,33.209 63.200 C 32.935 63.632,33.021 63.883,33.515 64.097 C 34.088 64.345,34.069 64.375,33.400 64.282 C 32.909 64.214,32.643 63.916,32.712 63.509 C 32.788 63.060,32.564 62.868,32.012 62.909 C 31.565 62.943,31.200 63.249,31.200 63.590 M34.400 63.115 C 34.400 63.288,34.760 63.457,35.200 63.490 C 35.640 63.523,36.000 63.381,36.000 63.175 C 36.000 62.969,35.640 62.800,35.200 62.800 C 34.760 62.800,34.400 62.942,34.400 63.115 M44.500 63.265 C 45.105 63.486,45.600 63.832,45.600 64.033 C 45.600 64.255,106.691 64.400,200.000 64.400 C 293.309 64.400,354.400 64.255,354.400 64.033 C 354.400 63.832,354.895 63.486,355.500 63.265 C 356.240 62.995,305.319 62.863,200.000 62.863 C 94.681 62.863,43.760 62.995,44.500 63.265 M367.168 64.986 C 367.978 66.461,367.984 66.514,367.236 65.600 C 366.786 65.050,366.414 64.444,366.409 64.253 C 366.404 64.063,365.950 63.993,365.400 64.098 C 364.493 64.271,364.114 64.019,364.581 63.552 C 365.223 62.910,366.380 63.551,367.168 64.986 M39.200 63.957 C 39.200 64.154,38.960 64.407,38.667 64.519 C 38.373 64.632,38.133 64.471,38.133 64.162 C 38.133 63.853,38.373 63.600,38.667 63.600 C 38.960 63.600,39.200 63.761,39.200 63.957 M374.116 65.200 C 374.340 66.058,373.788 66.233,372.812 65.616 C 372.488 65.411,372.363 65.104,372.533 64.933 C 372.704 64.763,373.011 64.888,373.216 65.212 C 373.528 65.705,373.589 65.687,373.594 65.100 C 373.602 64.164,373.858 64.213,374.116 65.200 M360.243 65.433 C 360.109 65.781,360.000 66.231,360.000 66.433 C 360.000 67.281,359.368 66.716,359.292 65.800 C 359.235 65.117,359.411 64.800,359.847 64.800 C 360.265 64.800,360.402 65.019,360.243 65.433 M37.200 65.557 C 37.200 65.754,36.921 66.022,36.579 66.153 C 36.238 66.284,36.059 66.228,36.182 66.030 C 36.305 65.831,36.179 65.577,35.902 65.466 C 35.626 65.354,35.805 65.249,36.300 65.232 C 36.795 65.214,37.200 65.361,37.200 65.557 M358.930 66.638 C 358.722 67.181,357.600 66.954,357.600 66.370 C 357.600 66.180,357.872 66.129,358.205 66.257 C 358.653 66.429,358.746 66.296,358.567 65.745 C 358.379 65.168,358.415 65.127,358.725 65.564 C 358.946 65.874,359.038 66.357,358.930 66.638 M363.895 65.477 C 363.507 65.578,363.285 65.814,363.402 66.003 C 363.518 66.191,363.430 66.458,363.207 66.596 C 362.983 66.734,362.797 66.522,362.794 66.124 C 362.789 65.522,362.725 65.499,362.416 65.988 C 362.211 66.312,361.926 66.459,361.782 66.315 C 361.249 65.782,362.086 65.201,363.324 65.246 C 364.026 65.272,364.283 65.376,363.895 65.477 M362.700 67.432 C 363.195 67.449,363.600 67.344,363.600 67.198 C 363.600 67.053,363.825 66.925,364.100 66.914 C 364.375 66.904,364.960 66.767,365.400 66.610 C 366.042 66.381,366.082 66.410,365.600 66.756 C 365.081 67.129,365.095 67.189,365.700 67.194 C 366.110 67.197,366.387 67.490,366.368 67.900 C 366.350 68.318,366.256 68.399,366.135 68.100 C 366.024 67.825,365.758 67.600,365.543 67.600 C 365.328 67.600,365.281 67.808,365.438 68.062 C 365.615 68.348,365.548 68.415,365.262 68.238 C 364.994 68.073,364.800 68.196,364.800 68.534 C 364.800 68.853,364.515 69.224,364.167 69.357 C 363.220 69.721,362.722 69.651,363.004 69.193 C 363.142 68.970,363.410 68.883,363.600 69.000 C 363.790 69.117,364.075 69.002,364.234 68.745 C 364.415 68.452,364.350 68.384,364.062 68.562 C 363.808 68.719,363.600 68.676,363.600 68.466 C 363.600 67.841,362.340 67.552,361.749 68.042 C 361.222 68.479,360.992 68.116,361.153 67.100 C 361.179 66.935,361.009 66.800,360.776 66.800 C 360.543 66.800,360.479 66.596,360.633 66.346 C 360.822 66.041,361.059 66.139,361.357 66.646 C 361.601 67.061,362.205 67.414,362.700 67.432 M376.238 67.096 C 376.111 67.223,376.211 67.572,376.460 67.873 C 376.710 68.173,376.798 68.535,376.657 68.676 C 376.516 68.818,376.397 68.678,376.394 68.367 C 376.389 67.900,376.319 67.906,376.000 68.400 C 375.694 68.874,375.611 68.785,375.606 67.980 C 375.603 67.419,375.375 66.722,375.100 66.431 C 374.687 65.994,374.762 65.986,375.534 66.383 C 376.048 66.648,376.365 66.969,376.238 67.096 M356.487 67.104 C 356.216 67.195,356.099 67.478,356.227 67.734 C 356.355 67.990,356.203 67.888,355.890 67.506 C 355.577 67.125,355.175 66.945,354.996 67.106 C 354.818 67.268,354.791 67.192,354.936 66.938 C 355.083 66.682,355.598 66.579,356.090 66.708 C 356.579 66.836,356.758 67.014,356.487 67.104 M374.454 68.000 C 374.718 68.000,374.818 68.116,374.676 68.257 C 374.286 68.647,373.197 67.591,373.225 66.851 C 373.243 66.410,373.368 66.491,373.612 67.100 C 373.811 67.595,374.190 68.000,374.454 68.000 M362.563 69.400 C 361.776 70.602,361.365 70.655,360.814 69.627 C 360.447 68.940,360.516 68.874,361.432 69.040 C 362.080 69.158,362.369 69.073,362.208 68.814 C 362.068 68.586,362.238 68.400,362.586 68.400 C 363.157 68.400,363.155 68.497,362.563 69.400 M365.322 69.857 C 365.060 69.964,364.933 70.281,365.041 70.562 C 365.148 70.842,364.958 71.303,364.618 71.585 C 364.236 71.902,364.000 71.935,364.000 71.673 C 364.000 71.439,364.172 71.141,364.383 71.011 C 364.593 70.881,364.664 70.510,364.540 70.187 C 364.390 69.796,364.562 69.611,365.057 69.632 C 365.466 69.649,365.585 69.751,365.322 69.857 M377.467 70.600 C 377.467 70.930,377.331 71.200,377.166 71.200 C 377.001 71.200,376.536 71.320,376.133 71.466 C 375.593 71.663,376.867 70.239,377.433 70.013 C 377.452 70.006,377.467 70.270,377.467 70.600 M358.972 70.845 C 358.821 71.089,358.946 71.443,359.249 71.630 C 359.552 71.818,359.808 72.202,359.818 72.485 C 359.828 72.768,360.067 72.951,360.348 72.890 C 360.629 72.830,360.745 72.965,360.606 73.190 C 360.467 73.416,360.536 73.600,360.761 73.600 C 361.236 73.600,362.800 75.196,362.800 75.681 C 362.800 76.341,359.578 73.859,358.800 72.599 C 357.838 71.044,357.787 70.400,358.624 70.400 C 358.979 70.400,359.129 70.591,358.972 70.845 M361.902 71.300 C 363.120 72.822,362.926 73.829,361.648 72.625 C 360.961 71.979,360.400 71.304,360.400 71.125 C 360.400 70.620,361.456 70.743,361.902 71.300 M27.778 71.714 C 27.669 71.997,27.213 72.229,26.763 72.229 C 26.000 72.229,25.992 72.195,26.650 71.714 C 27.036 71.431,27.493 71.200,27.664 71.200 C 27.835 71.200,27.886 71.431,27.778 71.714 M25.194 73.238 C 25.202 74.122,26.640 75.346,27.237 74.977 C 27.580 74.765,27.619 74.842,27.369 75.238 C 26.898 75.986,26.798 78.048,27.247 77.771 C 27.441 77.651,27.600 77.763,27.600 78.019 C 27.600 78.276,27.345 78.388,27.033 78.268 C 26.388 78.020,25.833 79.050,26.417 79.411 C 26.628 79.541,26.800 79.435,26.800 79.175 C 26.800 78.816,26.941 78.819,27.382 79.185 C 27.703 79.451,28.172 79.541,28.425 79.384 C 28.760 79.178,28.737 79.006,28.343 78.756 C 27.887 78.468,27.889 78.411,28.349 78.406 C 28.796 78.401,28.804 78.287,28.390 77.788 C 27.970 77.282,28.032 77.018,28.748 76.255 C 29.673 75.271,30.853 74.997,30.529 75.841 C 30.419 76.127,30.042 76.240,29.667 76.100 C 29.086 75.883,29.071 75.938,29.549 76.525 C 29.907 76.965,29.941 77.200,29.649 77.200 C 29.402 77.200,29.200 77.009,29.200 76.776 C 29.200 76.543,29.028 76.459,28.817 76.589 C 28.607 76.719,28.536 77.089,28.659 77.411 C 28.783 77.732,29.033 77.904,29.214 77.791 C 29.396 77.679,29.675 77.798,29.834 78.055 C 30.004 78.331,29.951 78.417,29.704 78.265 C 29.473 78.122,29.178 78.431,29.047 78.955 C 28.803 79.926,27.205 80.709,27.194 79.863 C 27.190 79.604,27.017 79.664,26.800 80.000 C 26.518 80.436,26.411 80.457,26.406 80.076 C 26.403 79.788,26.247 79.647,26.060 79.763 C 25.872 79.879,25.482 79.254,25.191 78.374 C 24.832 77.286,24.559 76.938,24.338 77.287 C 24.115 77.638,24.010 77.653,24.006 77.333 C 23.995 76.517,24.472 75.597,24.800 75.800 C 24.974 75.907,25.214 75.740,25.334 75.427 C 25.578 74.793,24.539 73.728,24.102 74.165 C 23.949 74.318,24.088 74.611,24.412 74.816 C 24.915 75.134,24.906 75.189,24.349 75.194 C 23.991 75.197,23.474 74.930,23.200 74.600 C 22.791 74.107,22.822 74.000,23.375 74.000 C 23.781 74.000,23.934 73.817,23.762 73.538 C 23.585 73.252,23.652 73.185,23.938 73.362 C 24.245 73.551,24.402 73.270,24.406 72.524 C 24.411 71.651,24.499 71.534,24.800 72.000 C 25.013 72.330,25.191 72.887,25.194 73.238 M29.844 72.750 C 28.579 74.143,26.935 74.844,26.411 74.213 C 25.791 73.466,26.204 72.808,27.177 72.996 C 27.595 73.076,28.027 72.907,28.137 72.621 C 28.247 72.334,28.808 72.100,29.385 72.100 C 30.328 72.100,30.374 72.165,29.844 72.750 M378.182 73.530 C 378.022 73.679,377.810 73.574,377.711 73.298 C 377.612 73.021,377.379 72.889,377.193 73.004 C 377.007 73.119,376.725 73.002,376.566 72.745 C 376.392 72.463,376.449 72.383,376.711 72.545 C 376.949 72.692,377.272 72.607,377.428 72.355 C 377.623 72.040,377.829 72.109,378.092 72.579 C 378.302 72.953,378.342 73.382,378.182 73.530 M31.803 72.730 C 31.695 72.838,31.795 73.154,32.026 73.431 C 32.338 73.807,32.269 73.910,31.756 73.835 C 30.931 73.714,30.650 72.533,31.445 72.533 C 31.750 72.533,31.912 72.622,31.803 72.730 M375.900 72.848 C 375.845 73.094,376.344 73.499,377.009 73.748 C 377.674 73.997,378.197 74.470,378.170 74.800 C 378.056 76.220,377.969 76.400,377.400 76.400 C 377.070 76.400,376.797 76.625,376.794 76.900 C 376.790 77.233,376.658 77.200,376.400 76.800 C 375.800 75.871,375.929 75.197,376.700 75.232 C 377.118 75.250,377.199 75.344,376.900 75.465 C 376.625 75.576,376.400 75.838,376.400 76.047 C 376.400 76.273,376.724 76.255,377.196 76.002 C 377.868 75.642,377.916 75.455,377.506 74.798 C 377.190 74.293,376.883 74.157,376.630 74.410 C 376.416 74.624,375.871 74.803,375.420 74.806 C 374.818 74.811,374.742 74.902,375.134 75.150 C 375.568 75.426,375.557 75.531,375.073 75.717 C 374.670 75.871,374.521 75.728,374.609 75.272 C 374.680 74.903,374.753 74.453,374.769 74.273 C 374.786 74.093,375.197 74.072,375.681 74.226 C 376.513 74.490,376.524 74.467,375.878 73.821 C 375.501 73.444,375.295 72.970,375.420 72.768 C 375.734 72.259,376.021 72.307,375.900 72.848 M29.468 74.180 C 29.065 74.486,28.470 75.065,28.146 75.468 C 27.596 76.150,27.585 76.140,27.983 75.317 C 28.218 74.832,28.723 74.252,29.105 74.029 C 30.109 73.444,30.322 73.533,29.468 74.180 M34.433 75.967 C 33.250 77.150,32.868 77.005,33.999 75.802 C 34.514 75.252,35.011 74.877,35.102 74.968 C 35.192 75.059,34.892 75.508,34.433 75.967 M25.550 76.000 C 25.523 76.220,25.500 76.670,25.500 77.000 C 25.500 78.195,25.607 78.443,26.016 78.190 C 26.245 78.048,26.316 77.565,26.173 77.116 C 25.977 76.497,26.046 76.379,26.457 76.627 C 26.907 76.897,26.906 76.837,26.451 76.277 C 25.820 75.499,25.620 75.438,25.550 76.000 M20.860 78.373 C 20.929 79.532,21.152 79.999,21.708 80.144 C 22.237 80.282,22.399 80.174,22.249 79.782 C 22.131 79.475,22.296 78.961,22.617 78.640 C 23.527 77.731,23.303 77.514,22.200 78.237 C 21.271 78.846,21.200 78.845,21.200 78.222 C 21.200 77.854,21.368 77.656,21.572 77.783 C 21.777 77.909,22.046 77.849,22.170 77.648 C 22.359 77.342,21.580 76.800,20.951 76.800 C 20.850 76.800,20.809 77.508,20.860 78.373 M34.600 78.000 C 34.464 78.220,34.588 78.414,34.876 78.432 C 35.256 78.454,35.267 78.517,34.918 78.659 C 34.653 78.767,33.824 79.697,33.076 80.727 C 31.209 83.300,29.380 84.370,29.056 83.079 C 28.495 80.846,29.615 79.355,32.400 78.624 C 33.316 78.384,33.333 78.401,32.600 78.834 C 30.290 80.196,28.128 83.153,29.900 82.528 C 30.908 82.172,32.400 80.749,32.400 80.143 C 32.400 79.858,32.895 79.357,33.500 79.029 C 34.108 78.699,34.332 78.422,34.000 78.410 C 33.467 78.390,33.467 78.345,34.000 78.000 C 34.768 77.503,34.907 77.503,34.600 78.000 M374.341 77.955 C 374.750 78.214,374.778 78.494,374.455 79.097 C 374.220 79.536,374.157 80.037,374.314 80.212 C 374.471 80.386,374.383 80.404,374.117 80.251 C 373.852 80.099,373.737 79.708,373.862 79.383 C 374.023 78.963,373.901 78.863,373.445 79.038 C 373.090 79.174,372.800 79.086,372.800 78.843 C 372.800 78.599,372.935 78.421,373.100 78.447 C 373.890 78.572,374.140 78.349,373.600 78.000 C 373.270 77.787,373.180 77.612,373.400 77.612 C 373.620 77.612,374.044 77.767,374.341 77.955 M370.064 80.064 C 371.533 81.533,370.600 81.631,369.052 80.171 C 367.879 79.065,367.722 78.785,368.395 78.998 C 368.881 79.153,369.632 79.632,370.064 80.064 M372.800 79.600 C 373.236 79.882,373.257 79.989,372.876 79.994 C 372.588 79.997,372.456 80.168,372.583 80.372 C 372.709 80.577,372.602 80.875,372.345 81.034 C 372.069 81.205,371.983 81.151,372.136 80.904 C 372.279 80.673,372.115 80.376,371.772 80.245 C 371.430 80.113,371.261 79.824,371.398 79.603 C 371.707 79.103,372.030 79.103,372.800 79.600 M376.006 81.200 C 376.243 81.200,376.114 81.631,375.719 82.157 C 375.272 82.752,374.898 82.950,374.730 82.682 C 374.544 82.384,374.267 82.412,373.830 82.775 C 373.481 83.065,373.200 83.117,373.200 82.892 C 373.200 82.418,374.376 81.838,375.100 81.954 C 375.375 81.999,375.600 81.837,375.600 81.594 C 375.600 81.351,375.420 81.264,375.200 81.400 C 374.968 81.544,374.811 81.176,374.825 80.524 C 374.850 79.452,374.867 79.441,375.212 80.300 C 375.411 80.795,375.768 81.200,376.006 81.200 M367.740 80.927 C 367.883 80.784,368.000 80.967,368.000 81.333 C 368.000 81.700,368.300 82.000,368.667 82.000 C 369.033 82.000,369.216 82.117,369.073 82.260 C 368.930 82.404,369.125 82.777,369.506 83.090 C 369.940 83.446,369.976 83.551,369.600 83.370 C 368.646 82.910,367.161 81.471,366.741 80.600 C 366.387 79.865,366.401 79.856,366.917 80.494 C 367.226 80.875,367.596 81.070,367.740 80.927 M378.746 83.900 C 378.716 84.945,378.611 85.381,378.514 84.869 C 378.392 84.231,378.144 84.013,377.724 84.174 C 377.298 84.337,377.181 84.228,377.339 83.815 C 377.465 83.487,377.261 83.033,376.883 82.801 C 376.270 82.423,376.282 82.391,377.000 82.490 C 377.440 82.551,377.932 82.780,378.094 83.000 C 378.260 83.226,378.390 83.095,378.394 82.700 C 378.397 82.315,378.490 82.000,378.600 82.000 C 378.710 82.000,378.775 82.855,378.746 83.900 M28.230 83.903 C 27.824 84.310,27.088 83.305,27.410 82.783 C 27.631 82.427,27.812 82.479,28.092 82.979 C 28.302 83.353,28.364 83.770,28.230 83.903 M376.166 84.055 C 376.031 84.274,376.296 84.552,376.755 84.672 C 377.215 84.793,377.484 85.064,377.353 85.276 C 377.222 85.487,376.691 85.261,376.170 84.772 C 375.291 83.946,375.185 82.897,376.034 83.421 C 376.243 83.550,376.302 83.835,376.166 84.055 M26.102 84.610 C 26.124 84.825,25.837 85.027,25.464 85.059 C 24.848 85.113,24.846 85.100,25.450 84.919 C 26.004 84.753,26.022 84.654,25.558 84.329 C 25.136 84.034,25.129 83.973,25.530 84.080 C 25.822 84.157,26.079 84.396,26.102 84.610 M330.498 86.294 C 331.569 87.320,331.600 87.474,331.600 91.706 C 331.600 97.873,331.080 98.400,325.000 98.400 C 318.897 98.400,318.400 97.888,318.400 91.600 C 318.400 87.155,318.404 87.134,319.626 85.912 L 320.853 84.686 325.124 84.962 C 329.004 85.213,329.497 85.335,330.498 86.294 M355.700 86.408 C 357.492 88.371,357.379 95.165,355.522 97.081 L 354.243 98.400 350.041 98.400 C 345.856 98.400,345.833 98.395,344.519 97.122 L 343.200 95.843 343.200 91.641 C 343.200 87.445,343.202 87.436,344.500 86.075 L 345.800 84.713 350.200 84.958 C 354.446 85.194,354.638 85.245,355.700 86.408 M22.557 86.633 C 22.691 86.981,22.760 91.166,22.712 95.933 L 22.623 104.600 22.400 95.600 L 22.177 86.600 22.088 95.500 C 22.033 101.108,21.852 104.400,21.600 104.400 C 21.164 104.400,21.030 88.476,21.452 86.900 C 21.734 85.850,22.212 85.734,22.557 86.633 M24.643 87.012 C 24.740 87.676,24.704 87.692,23.851 87.364 C 23.366 87.178,23.338 87.017,23.718 86.604 C 24.255 86.021,24.514 86.135,24.643 87.012 M376.256 87.294 C 375.359 87.872,375.180 87.556,375.569 86.084 C 375.586 86.021,375.850 86.201,376.156 86.484 C 376.558 86.858,376.586 87.081,376.256 87.294 M378.548 86.900 C 378.970 88.476,378.836 104.400,378.400 104.400 C 378.148 104.400,377.967 101.108,377.912 95.500 L 377.823 86.600 377.600 95.600 L 377.377 104.600 377.288 95.933 C 377.240 91.166,377.309 86.981,377.443 86.633 C 377.788 85.734,378.266 85.850,378.548 86.900 M25.616 95.645 C 25.591 100.330,25.487 104.246,25.385 104.348 C 25.283 104.450,25.200 100.513,25.200 95.600 C 25.200 90.687,25.304 86.770,25.430 86.897 C 25.557 87.024,25.640 90.960,25.616 95.645 M374.720 95.900 C 374.639 104.609,374.498 103.593,374.304 92.899 C 374.247 89.764,374.335 87.199,374.500 87.199 C 374.665 87.200,374.764 91.115,374.720 95.900 M24.000 95.800 C 24.000 101.000,23.854 104.000,23.600 104.000 C 23.346 104.000,23.200 101.000,23.200 95.800 C 23.200 90.600,23.346 87.600,23.600 87.600 C 23.854 87.600,24.000 90.600,24.000 95.800 M27.899 99.878 C 27.828 102.255,27.770 100.420,27.769 95.800 C 27.769 91.180,27.827 89.235,27.898 91.478 C 27.969 93.721,27.970 97.501,27.899 99.878 M372.299 99.878 C 372.228 102.255,372.170 100.420,372.169 95.800 C 372.169 91.180,372.227 89.235,372.298 91.478 C 372.369 93.721,372.370 97.501,372.299 99.878 M376.800 95.800 C 376.800 101.000,376.654 104.000,376.400 104.000 C 376.146 104.000,376.000 101.000,376.000 95.800 C 376.000 90.600,376.146 87.600,376.400 87.600 C 376.654 87.600,376.800 90.600,376.800 95.800 M218.917 151.844 C 217.812 152.897,217.132 153.982,216.817 155.200 C 215.011 162.167,214.571 163.390,212.768 166.455 C 210.440 170.409,209.947 171.806,208.583 178.303 C 207.275 184.540,206.376 187.130,204.364 190.460 C 202.206 194.031,201.497 196.037,200.216 202.200 C 198.853 208.754,198.108 210.866,195.878 214.493 C 193.770 217.923,193.181 219.656,191.767 226.600 C 190.554 232.551,189.818 234.619,187.609 238.281 C 185.762 241.344,184.737 244.297,183.610 249.800 C 182.490 255.271,181.453 258.231,179.550 261.386 C 177.477 264.823,176.615 267.334,175.203 274.045 C 173.917 280.155,173.442 281.474,171.175 285.235 C 170.132 286.965,169.247 289.211,168.596 291.776 L 167.605 295.683 168.430 296.842 C 169.664 298.575,170.531 298.872,175.009 299.101 L 179.099 299.310 180.851 297.695 C 182.405 296.262,182.661 295.771,183.122 293.340 C 183.894 289.272,185.334 285.465,187.161 282.660 C 189.123 279.648,190.003 277.187,191.400 270.800 C 192.774 264.518,193.627 262.098,195.416 259.402 C 197.363 256.470,198.253 254.012,199.619 247.800 C 201.062 241.235,201.997 238.543,203.750 235.901 C 205.826 232.772,206.573 230.746,208.001 224.376 C 209.501 217.683,210.457 214.878,212.055 212.479 C 214.398 208.961,215.150 206.900,216.571 200.104 C 217.844 194.018,218.765 191.436,220.754 188.374 C 222.657 185.445,224.020 181.488,225.221 175.400 C 226.251 170.176,226.795 168.709,229.075 164.996 C 230.282 163.031,231.097 161.009,231.801 158.237 L 232.804 154.281 231.786 152.946 C 230.331 151.038,229.792 150.850,224.920 150.554 L 220.551 150.289 218.917 151.844 M230.209 153.209 L 231.124 154.068 230.383 156.658 C 229.976 158.082,228.818 160.537,227.810 162.112 C 225.731 165.362,224.809 168.056,223.810 173.800 C 222.715 180.094,221.780 182.910,220.139 184.862 C 217.859 187.573,216.796 190.386,215.364 197.494 C 213.704 205.728,213.509 206.308,211.568 208.745 C 209.359 211.520,208.615 213.424,207.405 219.400 C 205.525 228.691,204.887 230.633,202.985 232.861 C 200.883 235.324,199.832 238.075,198.807 243.800 C 197.816 249.337,196.307 254.550,195.448 255.409 C 192.793 258.064,191.592 261.034,190.356 268.000 C 189.302 273.943,188.021 277.603,186.234 279.785 C 184.020 282.487,182.436 287.134,181.390 294.000 C 180.908 297.162,180.155 297.600,175.200 297.600 C 168.477 297.600,167.670 295.324,172.011 288.600 C 174.564 284.644,177.200 276.030,177.200 271.642 C 177.200 270.276,179.027 266.150,180.176 264.923 C 182.132 262.832,183.225 259.844,184.782 252.332 C 186.520 243.946,186.770 243.196,188.474 241.255 C 190.534 238.909,191.577 235.988,193.187 228.062 C 194.774 220.254,195.101 219.351,197.379 216.513 C 199.115 214.349,200.203 211.411,200.999 206.733 C 202.102 200.255,203.537 195.578,204.896 194.030 C 206.963 191.676,208.294 188.186,209.562 181.800 C 210.956 174.779,212.044 171.418,213.380 170.013 C 215.408 167.879,218.380 159.180,218.396 155.331 C 218.398 154.853,218.887 153.883,219.482 153.175 L 220.565 151.889 224.930 152.119 C 228.655 152.316,229.428 152.475,230.209 153.209 M125.644 184.233 C 120.197 185.697,119.330 186.514,117.187 192.200 C 115.285 197.245,114.903 197.939,112.802 200.161 C 110.778 202.301,109.898 203.981,107.611 210.072 C 106.677 212.559,105.769 214.149,104.413 215.672 C 101.432 219.023,101.200 219.695,101.200 225.000 C 101.200 230.270,101.392 230.839,104.272 234.081 C 106.158 236.205,107.570 238.924,109.215 243.600 C 110.145 246.245,111.591 248.583,112.876 249.518 C 113.905 250.267,115.284 252.788,117.408 257.800 C 119.722 263.259,120.096 263.661,124.086 264.980 C 128.994 266.602,132.128 266.153,135.547 263.337 L 136.493 262.557 135.492 260.579 C 134.941 259.490,134.090 257.250,133.600 255.600 C 132.484 251.846,130.897 248.670,129.000 246.400 C 127.242 244.296,125.628 241.161,124.433 237.528 C 123.568 234.899,122.343 232.875,120.257 230.624 C 119.246 229.532,119.200 229.291,119.200 225.018 L 119.200 220.552 121.017 218.424 C 123.165 215.907,123.783 214.779,125.046 211.066 C 126.138 207.853,127.370 205.629,129.411 203.187 C 131.299 200.927,132.264 198.988,133.683 194.600 C 134.324 192.620,135.315 190.201,135.885 189.224 L 136.923 187.448 135.570 186.318 C 132.683 183.908,129.408 183.220,125.644 184.233 M267.957 184.542 C 265.556 185.529,263.082 187.117,263.283 187.541 C 263.351 187.684,263.974 188.889,264.669 190.221 C 265.363 191.552,266.240 193.712,266.617 195.021 C 267.526 198.172,269.313 201.676,270.950 203.512 C 272.750 205.532,274.171 208.093,275.198 211.171 C 276.404 214.785,277.337 216.477,279.403 218.803 L 281.200 220.827 281.200 225.144 C 281.200 229.281,281.157 229.501,280.158 230.430 C 278.356 232.106,276.766 234.741,275.557 238.054 C 274.020 242.263,273.242 243.722,271.002 246.589 C 268.904 249.275,268.417 250.281,266.735 255.400 C 266.084 257.380,265.114 259.785,264.579 260.744 C 263.385 262.887,263.426 262.956,266.936 264.638 C 270.354 266.276,271.238 266.309,275.489 264.958 C 279.739 263.607,280.327 262.965,282.881 256.880 C 284.554 252.893,285.429 251.365,287.040 249.616 C 289.509 246.933,289.657 246.662,291.435 241.554 C 293.036 236.954,293.488 236.136,295.857 233.541 C 300.218 228.767,300.111 220.885,295.619 216.000 C 293.524 213.721,293.190 213.088,291.451 208.092 C 289.675 202.990,289.637 202.920,287.012 199.979 C 285.518 198.304,284.517 196.675,283.757 194.680 C 280.785 186.885,280.088 186.080,275.055 184.625 C 270.773 183.387,270.765 183.387,267.957 184.542 M131.611 186.006 C 134.261 187.343,134.246 187.315,133.394 189.353 C 133.060 190.151,132.511 191.999,132.172 193.458 C 131.365 196.939,129.970 199.626,128.045 201.406 C 126.215 203.099,124.332 206.744,123.397 210.400 C 122.622 213.432,121.647 215.159,119.843 216.695 C 115.346 220.523,115.415 230.318,119.959 233.372 C 121.447 234.372,122.549 236.441,123.556 240.124 C 124.671 244.199,125.946 246.631,128.000 248.600 C 130.048 250.563,131.351 253.040,131.998 256.200 C 132.268 257.520,132.825 259.489,133.235 260.576 C 133.645 261.663,133.940 262.585,133.891 262.625 C 131.247 264.741,129.085 265.045,125.525 263.801 C 121.379 262.352,120.260 260.891,117.407 253.200 C 116.520 250.810,115.859 249.781,114.152 248.139 C 112.227 246.287,111.834 245.599,110.267 241.339 C 107.977 235.113,107.516 234.279,104.960 231.743 L 102.800 229.600 102.800 224.957 L 102.800 220.313 105.029 218.084 C 107.626 215.487,108.155 214.515,110.189 208.600 C 111.529 204.702,111.921 203.995,113.626 202.400 C 115.618 200.537,117.194 198.244,117.200 197.200 C 117.208 195.964,120.793 188.700,121.839 187.800 C 122.642 187.111,127.886 184.957,129.111 184.813 C 129.173 184.806,130.298 185.343,131.611 186.006 M274.617 186.163 C 278.571 187.598,280.648 190.348,282.804 197.000 C 283.579 199.390,284.979 201.398,286.546 202.367 C 287.814 203.151,288.100 203.702,289.627 208.315 C 291.768 214.780,292.384 215.982,294.484 217.779 C 298.233 220.988,298.488 229.733,294.889 231.659 C 293.192 232.568,291.603 235.454,289.822 240.867 C 288.176 245.870,287.998 246.204,286.036 247.959 C 284.277 249.532,283.727 250.411,282.255 254.000 C 279.188 261.474,278.316 262.484,273.627 263.991 L 270.718 264.927 268.559 263.868 C 266.095 262.659,266.157 262.832,267.152 259.940 C 267.565 258.739,268.037 256.956,268.200 255.978 C 268.584 253.682,270.562 249.756,271.619 249.190 C 272.955 248.475,275.135 244.666,276.244 241.110 C 277.784 236.173,278.244 235.295,280.251 233.469 C 284.884 229.253,284.822 220.098,280.136 216.524 C 278.546 215.311,277.446 213.364,276.765 210.554 C 275.949 207.193,273.835 203.105,271.908 201.162 C 269.641 198.876,269.066 197.774,268.037 193.745 C 267.588 191.986,266.946 189.889,266.610 189.086 C 265.811 187.173,265.728 187.357,267.900 186.226 C 270.299 184.977,271.324 184.968,274.617 186.163 " stroke="none" fill="#c4c4c4" fill-rule="evenodd"></path></g></svg>